<?xml version="1.0" encoding="UTF-8" standalone="yes"?>
<svg version="1.2" width="400px" height="400px" viewBox="0 0 400 400" preserveAspectRatio="xMidYMid meet" baseProfile="tiny-ps" xmlns="http://www.w3.org/2000/svg">
  <title>bimi-svg-tiny-12-ps</title>
  <g fill="#ffffff">
    <path d="M224 397.8 c0 -2.3 3.7 -9.6 9.7 -19.3 1.7 -2.7 5.7 -9.4 8.8 -14.8 4.6 -8 6.4 -10.2 9.2 -11.3 5.1 -2.2 80.1 -1.6 82.7 0.6 2.2 1.8 6.4 8.3 14.1 22 3.2 5.8 7.1 12.5 8.7 14.9 1.5 2.5 2.8 5.8 2.8 7.3 l0 2.8 -68 0 -68 0 0 -2.2z"/>
    <path d="M367.5 391.8 c-2.7 -4.6 -8 -13.5 -11.8 -19.8 -12.5 -20.5 -13.8 -25.3 -9.4 -34 2.3 -4.5 9.1 -16.3 25.4 -44 11.1 -18.7 11.4 -19 20.9 -19 l7.4 0 0 62.5 0 62.5 -13.9 0 -13.8 0 -4.8 -8.2z"/>
    <path d="M383.8 109.3 c-0.9 -0.2 -2.7 -2.1 -4 -4.1 -5.3 -8.1 -7.8 -12.1 -12.8 -20.7 -2.9 -4.9 -8 -13.5 -11.3 -19 -9.4 -15.4 -11.7 -20.3 -11.7 -24.9 0 -4.8 3.1 -11.6 12.4 -27.1 3.6 -6 6.6 -11.5 6.6 -12.2 0 -1 4.2 -1.3 18.5 -1.3 l18.5 0 0 55 0 55 -7.2 -0.1 c-4 -0.1 -8 -0.3 -9 -0.6z"/>
    <path d="M0 17.1 l0 -17.1 43 0 43 0 0 2.4 c0 2.1 -5.5 12.4 -12.3 23.3 -5 8 -4 7.8 -40.9 8.1 l-32.8 0.4 0 -17.1z"/>
  </g>
  <g fill="#fdeff5">
    <path d="M260.3 181.3 c-2.4 -0.2 -4.3 -0.8 -4.3 -1.4 0 -0.5 -0.8 -0.9 -1.8 -0.9 -2.6 0 -6.2 -4.3 -10.1 -12.2 -1.8 -3.8 -3.7 -6.8 -4.2 -6.8 -0.5 0 -0.9 -0.8 -0.9 -1.9 0 -1 -1.1 -2.7 -2.5 -3.7 -1.3 -1 -2.7 -3.1 -3.1 -4.7 -0.3 -1.5 -1.4 -3.3 -2.5 -4 -1 -0.6 -1.9 -2 -1.9 -3 0 -1 -1.1 -2.9 -2.4 -4.2 -1.4 -1.4 -2.6 -3.7 -2.8 -5.2 -0.2 -1.7 -1.2 -3.2 -2.5 -3.8 -2.9 -1.2 -3.1 -1.8 -3.9 -11 -0.6 -7.2 -0.6 -7.6 1.8 -9.5 1.5 -1.1 2.9 -3.5 3.2 -5.5 0.4 -1.9 1.1 -3.5 1.6 -3.5 0.6 0 1 -1.1 1 -2.4 0 -1.4 1.1 -3.3 2.5 -4.4 1.4 -1.1 2.5 -2.4 2.5 -2.8 0 -0.5 1.4 -2.9 3 -5.3 1.7 -2.4 3 -5.2 3 -6.3 0 -1 1.6 -3.4 3.5 -5.4 1.9 -1.9 3.5 -4.3 3.5 -5.4 0 -1 0.5 -2.2 1 -2.5 0.6 -0.3 1 -1.7 1 -3.1 0 -1.4 0.7 -2.7 1.5 -3 0.8 -0.4 1.5 -1.2 1.5 -2 0 -0.8 0.6 -1.4 1.4 -1.4 0.8 0 2 -1.3 2.8 -3 1.1 -2.6 1.8 -3 5 -3 2.1 0 3.8 0.5 3.8 1 0 0.6 12 1 33.8 1.1 23.4 0 34.7 0.4 37.1 1.2 2.7 1 3.6 2.1 5 6.2 1.1 3.1 2.5 5.4 3.9 6 1.5 0.6 2.2 1.9 2.2 3.6 0 1.4 1.1 4.3 2.5 6.3 1.4 2 2.5 4 2.5 4.4 0 0.4 0.9 1.3 2 2 1.1 0.7 2 1.9 2 2.6 0 0.8 0.6 2.1 1.3 2.8 0.7 0.7 2.1 3 3 5.1 1 2 2.2 3.7 2.7 3.7 0.6 0 1 0.6 1 1.4 0 0.8 0.4 1.6 0.8 1.8 0.4 0.2 1.8 2.2 3 4.6 2.8 5.3 3.2 20.1 0.7 22.2 -0.8 0.7 -1.5 1.9 -1.5 2.6 0 0.8 -0.4 1.4 -1 1.4 -0.5 0 -1 0.7 -1 1.5 0 0.8 -0.4 1.5 -0.9 1.5 -0.5 0 -1.1 1.8 -1.5 4 -0.3 2.2 -1 4 -1.5 4 -0.5 0 -1.2 1.1 -1.5 2.4 -0.3 1.3 -1.5 2.6 -2.5 2.9 -1.3 0.3 -2.2 1.7 -2.6 4 -0.5 2.3 -1.4 3.7 -2.6 4 -1.3 0.4 -1.9 1.4 -1.9 3.6 0 2.2 -0.7 3.5 -2.5 4.7 -1.5 1 -2.5 2.6 -2.5 4 0 1.4 -0.6 2.4 -1.4 2.4 -1.3 0 -3.2 3.6 -3.8 7.5 -0.2 1.3 -1.2 2.1 -2.8 2.4 -1.4 0.1 -2.8 0.8 -3.2 1.5 -0.5 0.8 -9.9 1.1 -33 1.2 -17.8 0.1 -34.2 -0.1 -36.5 -0.3z"/>
    <path d="M254 27.6 c0 -0.8 -1.6 -2.8 -3.5 -4.5 -1.9 -1.7 -3.5 -3.7 -3.5 -4.6 0 -0.8 -0.4 -1.5 -0.9 -1.5 -0.5 0 -1.4 -1.3 -2.1 -3 -0.7 -1.6 -1.6 -3 -2.1 -3 -0.5 0 -0.9 -0.8 -0.9 -1.9 0 -1 -0.7 -2.4 -1.5 -3.1 -0.8 -0.7 -1.5 -2.3 -1.5 -3.6 l0 -2.4 53.3 0.2 53.2 0.3 0.3 2.9 c0.5 4 -0.6 7.6 -2.2 7.6 -0.8 0 -2.7 2.6 -4.1 5.8 -1.5 3.1 -3.2 6.7 -3.7 7.9 -0.6 1.1 -2.2 2.4 -3.7 2.8 -1.4 0.4 -19.4 0.9 -39.8 1.1 -31.4 0.3 -37.3 0.2 -37.3 -1z"/>
  </g>
  <g fill="#f9e2ec">
    <path d="M250.3 185 c-1.8 -1.1 -5.2 -5 -7.5 -8.8 -2.4 -3.7 -4.8 -7.7 -5.5 -8.8 -0.7 -1 -2.5 -4.1 -4.1 -6.9 -8.8 -15.2 -13.2 -22.6 -17.3 -29 -3.5 -5.4 -4.9 -9.9 -4.9 -15.5 0 -3.9 1.1 -6.5 7.1 -17.1 4 -6.8 8.3 -14.4 9.7 -16.9 1.4 -2.5 3.2 -5.6 4.2 -7 0.9 -1.4 4.2 -7 7.2 -12.5 6.5 -11.6 9.2 -15 13.1 -16.4 4.5 -1.7 75.9 -1.5 80 0.3 4.2 1.8 6.8 4.7 11.5 13.1 2.2 3.9 6.3 11.1 9.2 16 20 34.1 19.5 33 19.5 41.5 l0 7.5 -10.4 17.5 c-5.7 9.6 -11.6 19.4 -13.2 21.8 -1.6 2.3 -2.9 4.5 -2.9 4.8 0 1.5 -8.6 13.7 -11.1 15.9 l-3.1 2.5 -39.1 0 c-37.3 0 -39.4 -0.1 -42.4 -2z m70.8 -6.7 c5.8 -0.7 6.1 -0.8 2.9 -1.4 -3.4 -0.6 -3.4 -0.6 1.3 -0.9 6.3 -0.3 6.4 -0.4 7.4 -1.4 0.5 -0.5 0.3 -0.6 -0.4 -0.2 -1.9 1 -1.6 0.3 1.8 -6.1 1.7 -3.2 4.5 -7.1 6.2 -8.6 1.8 -1.6 2.6 -2.6 2 -2.2 -0.7 0.3 -1.3 0.1 -1.3 -0.4 0 -0.6 0.5 -1.1 1 -1.1 0.6 0 1 -0.9 1 -2.1 0 -1.2 0.8 -2.3 2 -2.6 1.6 -0.4 1.8 -1.1 1.3 -3.1 -0.4 -1.7 -0.2 -2.3 0.6 -1.8 0.6 0.4 1.1 0.1 1.1 -0.9 0 -0.9 0.9 -1.9 1.9 -2.2 1.1 -0.3 2.2 -1.2 2.5 -2 0.3 -0.8 0.1 -1.1 -0.4 -0.8 -0.6 0.3 -1 0.2 -1 -0.4 0 -0.5 0.9 -1.3 2 -1.6 1.4 -0.4 2.2 -1.9 2.6 -4.6 0.4 -2.1 1 -3.9 1.5 -3.9 0.5 0 0.9 -0.7 0.9 -1.5 0 -0.8 0.5 -1.5 1 -1.5 0.6 0 1 -0.6 1 -1.4 0 -0.7 0.7 -1.9 1.5 -2.6 1.7 -1.4 2.1 -11 0.5 -11 -0.5 0 -1 -0.5 -1 -1.1 0 -0.5 0.5 -0.7 1.1 -0.3 0.8 0.4 0.8 0 0 -1.5 -0.7 -1.1 -1.7 -2 -2.3 -1.8 -0.6 0.1 -1.3 -0.4 -1.5 -1 -0.3 -0.7 0 -1.3 0.6 -1.3 0.6 0 0.8 -0.6 0.5 -1.4 -0.3 -0.9 -1.2 -1.2 -2.1 -0.9 -1.3 0.5 -1.5 0.2 -1.1 -1.5 0.4 -1.2 0.2 -2.2 -0.3 -2.2 -0.4 0 -1.7 -1.9 -2.8 -4.2 -1.1 -2.4 -2.1 -3.8 -2.1 -3.3 -0.1 1 -2.2 -3.3 -2.4 -4.8 -0.1 -0.5 -0.8 -1.4 -1.7 -2 -0.8 -0.7 -1.8 -1.9 -2.2 -2.7 -0.4 -0.8 -2.1 -3.5 -3.7 -6 -1.6 -2.5 -4.1 -6.9 -5.5 -9.8 -1.4 -2.9 -3.2 -5.5 -4 -5.8 -0.8 -0.4 -1.2 -1 -0.9 -1.5 0.3 -0.5 1 -0.6 1.6 -0.3 0.7 0.4 0.8 0.2 0.4 -0.4 -1.1 -1.9 -8.7 -3.6 -9.6 -2.2 -0.5 0.9 -0.9 0.9 -1.4 0.1 -0.9 -1.5 -58.6 -1.6 -58.6 -0.1 0 1.1 -4 -0.8 -5.2 -2.5 -0.4 -0.5 -0.8 -0.7 -1 -0.5 -0.2 0.3 -1.1 1.9 -2 3.5 -1 1.7 -2.2 2.9 -2.8 2.8 -0.5 -0.2 -0.9 0.1 -0.7 0.6 0.1 0.5 -0.7 1.7 -1.8 2.6 -1.1 0.9 -1.4 1.4 -0.8 1 1.8 -0.9 1.6 0.3 -0.6 3.3 -1 1.5 -2.1 3.9 -2.4 5.3 -0.4 1.5 -1.8 3.4 -3.2 4.3 -1.4 0.9 -2.3 2.1 -2 2.6 0.4 0.6 0.1 1 -0.5 1 -0.7 0 -1 0.6 -0.7 1.3 0.3 0.7 -1 3.5 -2.9 6.2 -1.9 2.8 -3.4 5.4 -3.4 5.8 0 0.5 -1 1.7 -2.2 2.6 -1.2 1 -2.3 2.9 -2.5 4.2 -0.2 1.3 -0.8 2.5 -1.3 2.7 -0.5 0.2 -1.2 1.9 -1.6 3.8 -0.3 1.9 -1.6 4.2 -2.8 5.2 -2.3 1.9 -2.5 4.5 -0.6 9.1 0.6 1.6 0.9 3.5 0.5 4 -0.3 0.6 0 0.9 0.8 0.5 0.9 -0.3 2 0.8 3.1 3.1 1 2 1.6 3.9 1.3 4.1 -0.2 0.3 0.9 1.9 2.5 3.6 1.6 1.7 2.7 3.7 2.4 4.4 -0.3 0.7 0.2 1.5 1 1.8 1.3 0.5 3.1 3.7 3.2 5.9 0.1 0.5 1.5 2.1 3.3 3.6 1.8 1.6 2.9 3.3 2.5 4 -0.4 0.6 -0.3 1.1 0.2 1.1 0.5 0 2.5 3 4.3 6.8 5.1 10.2 7.2 12.2 13.3 12.4 4.4 0.1 4.6 0.2 1.6 0.7 l-3.5 0.5 4.5 0.6 c6.3 1 50.4 1.1 58.1 0.3z"/>
    <path d="M252.6 33.3 c-3.1 -0.8 -6.2 -4.3 -11.6 -13.3 -6.9 -11.2 -9 -15.5 -9 -18 0 -3.2 7.1 -2.8 10.5 0.6 1.5 1.4 2.4 3.2 2.1 4 -0.3 0.8 -0.2 1.4 0.3 1.4 0.5 0 1.4 1.4 2.1 3 0.7 1.7 1.6 3 2.1 3 0.5 0 0.9 0.7 0.9 1.5 0 0.8 1.5 2.9 3.3 4.5 2.4 2.2 4.3 3 7.7 3.1 4.1 0.2 4.2 0.3 1 0.6 -9.5 1.2 -2.4 1.8 22.4 2.2 28 0.3 46.5 -0.6 39.6 -2 -3 -0.6 -2.8 -0.7 1.7 -0.6 2.8 0.1 5 0 4.7 -0.2 -0.2 -0.2 0.4 -1 1.4 -1.8 0.9 -0.8 1.1 -1.2 0.5 -0.8 -0.7 0.3 -1.3 0.1 -1.3 -0.4 0 -0.6 0.4 -1.1 0.9 -1.1 0.5 0 2.1 -2.5 3.6 -5.5 1.4 -3 3.3 -5.5 4.1 -5.5 0.8 0 1.2 -0.5 0.9 -1 -0.3 -0.5 -0.2 -1 0.4 -1 0.6 0 0.8 -1.2 0.5 -3 l-0.6 -3 5.7 0 5.8 0 -0.6 3.6 c-0.6 3.5 -7.6 16.7 -12.5 23.2 -5.4 7.4 -4.3 7.2 -46.7 7.1 -20.9 -0.1 -38.9 -0.4 -39.9 -0.6z"/>
  </g>
  <g fill="#e6e6e6">
    <path d="M221 397.3 c0 -1.4 2.8 -7.5 6.3 -13.5 3.4 -6 8.2 -14.4 10.6 -18.6 6 -10.7 8.8 -14.2 12.7 -15.8 4.8 -2 78.9 -2 83.7 -0.1 3.7 1.6 5.4 4 17 23.7 10.9 18.8 11.7 20.3 11.7 24 0 2.6 -0.3 3 -2.7 3 -2.3 -0.1 -3.2 -0.9 -4.9 -4.3 -2.3 -4.7 -15.7 -28 -19.6 -34.2 -4.6 -7.4 -2.3 -7 -41.9 -7.3 -29.4 -0.2 -36.4 0 -39.2 1.2 -2.8 1.1 -4.6 3.3 -9.2 11.3 -3.1 5.4 -7.2 12.3 -9.1 15.3 -1.9 3 -4.9 8.3 -6.6 11.8 -2.8 5.4 -3.6 6.2 -6 6.2 -2.4 0 -2.8 -0.4 -2.8 -2.7z"/>
    <path d="M358.5 383.3 c-16.2 -27 -17.5 -29.8 -17.5 -36.2 0 -6.6 0 -6.7 18.3 -38.1 17.3 -29.9 20.6 -35 23.4 -36.1 1.4 -0.5 5.8 -0.9 9.9 -0.9 l7.4 0 0 3 c0 3 0 3 -5.9 3 -7.8 0 -8.7 0.8 -19.3 19 -29.2 49.6 -28.3 47.8 -26.8 52.6 0.6 1.9 5 9.8 9.7 17.7 14.8 24.8 16.2 27.1 17.2 30 1 2.6 1 2.7 -2.7 2.7 l-3.7 -0.1 -10 -16.6z"/>
    <path d="M380.6 110.9 c-1.4 -1.1 -4.8 -5.7 -7.5 -10.2 -2.6 -4.5 -9.3 -15.6 -14.8 -24.7 -16.7 -27.5 -17.3 -28.8 -17.3 -35.6 0 -5.6 0.5 -6.9 8.4 -21 11.5 -20.7 10.6 -19.4 14.4 -19.4 3.2 0 3.4 0.2 2.7 2.8 -0.3 1.5 -3.2 7 -6.3 12.2 -3.1 5.2 -7.4 12.9 -9.5 17.1 -4.8 9.4 -4.8 9.3 6 27.1 4.3 7 10.7 17.7 14.3 23.8 14.7 24.9 13.2 23.3 21.9 23.8 7.1 0.4 7.1 0.4 7.1 3.3 l0 2.9 -8.4 0 c-6.9 0 -8.8 -0.4 -11 -2.1z"/>
    <path d="M0 34 l0 -3 23.3 -0.1 c42.8 -0.2 42.3 -0.2 47.4 -8.2 4.6 -7.4 12.3 -21 12.3 -21.8 0 -0.5 1.4 -0.9 3 -0.9 5 0 4.1 4.7 -3.5 17.5 -8.4 14.4 -11 17.4 -16 18.5 -2.2 0.5 -18.1 1 -35.2 1 l-31.3 0 0 -3z"/>
  </g>
  <g fill="#edd2de">
    <path d="M250.3 190.3 c-2.4 -0.5 -7 -5.5 -9.4 -10.1 -0.8 -1.5 -3.6 -6.3 -6.3 -10.7 -2.7 -4.4 -8.2 -13.8 -12.4 -21 -4.1 -7.1 -7.8 -13.4 -8.2 -14 -0.4 -0.5 -2.2 -3.7 -4 -6.9 -2.9 -5.2 -3.2 -6.6 -2.8 -12 0.4 -5.4 1.2 -7.4 7.2 -17.6 3.8 -6.3 9.2 -15.5 12.1 -20.5 16.1 -27.7 19.8 -33.6 21.8 -34.7 2.4 -1.4 71.7 -2.5 81.5 -1.3 7 0.9 9.6 3.3 16.2 15 7 12.5 8.5 15.1 14.9 26 2.9 5 6.2 10.6 7.3 12.5 1.1 1.9 3.5 6 5.4 9.1 5.5 9.1 5.4 17.5 -0.2 26.2 -1.4 2.1 -3.6 5.7 -4.9 8 -1.2 2.3 -4.1 7.1 -6.4 10.7 -2.2 3.6 -5 8.3 -6.2 10.4 -5 9.2 -16 26.3 -18.4 28.6 l-2.7 2.5 -41.1 0.1 c-22.7 0.1 -42.2 0 -43.4 -0.3z m81.6 -8.8 c2.5 -2.2 11.1 -14.4 11.1 -15.9 0 -0.3 1.3 -2.5 2.9 -4.8 1.6 -2.4 7.5 -12.2 13.2 -21.8 9.1 -15.2 10.4 -18.1 10.4 -22 0 -4.9 -1.2 -7.3 -19.5 -38.5 -2.9 -4.9 -7 -12.1 -9.2 -16 -4.7 -8.4 -7.3 -11.3 -11.5 -13.1 -4.1 -1.8 -69.5 -2 -74 -0.3 -3.9 1.4 -6.6 4.8 -13.1 16.4 -3 5.5 -6.3 11.1 -7.2 12.5 -1 1.4 -2.8 4.5 -4.2 7 -1.4 2.5 -5.7 10.1 -9.7 16.9 -3.9 6.9 -7.1 13.2 -7.1 14.1 0 2.8 2.1 8.2 4.9 12.5 4.1 6.4 8.5 13.8 17.3 29 1.6 2.8 3.4 5.9 4.1 6.9 0.7 1.1 3.1 5.1 5.5 8.8 7 11.3 4.8 10.8 46.9 10.8 l36.1 0 3.1 -2.5z"/>
    <path d="M250.3 36.9 c-3.7 -1.1 -3.8 -1.2 -14.4 -18.3 -4.9 -8.1 -7.9 -14 -7.9 -15.8 0 -2.6 0.3 -2.8 4.2 -2.8 2.3 0 3.9 0.3 3.5 0.6 -1.2 1.3 11.7 23.3 16.1 27.4 l2.6 2.5 35.6 0.3 c19.5 0.2 36.5 0.1 37.7 -0.3 4 -1 8.2 -5.6 13.9 -15.2 3 -5.2 6 -10.8 6.6 -12.4 0.8 -2.4 1.5 -2.9 4.4 -2.9 3.1 0 3.4 0.3 3.4 2.8 0 1.6 -2.1 6.3 -4.8 10.8 -2.6 4.3 -5.6 9.6 -6.7 11.7 -3.4 6.5 -7.4 10.6 -11.3 11.7 -4.7 1.3 -78.4 1.2 -82.9 -0.1z"/>
  </g>
  <g fill="#d6fbc7">
    <path d="M0 379 l0 -21 25.8 0.1 c33 0 37.8 0.5 41.8 4.4 1.7 1.7 3.8 4.8 4.9 7 1 2.1 3.1 5.7 4.6 7.9 1.6 2.1 2.9 4.3 2.9 4.7 0 0.4 1.6 3.4 3.5 6.6 1.9 3.2 3.5 7 3.5 8.6 l0 2.7 -43.5 0 -43.5 0 0 -21z"/>
    <path d="M255.5 332.6 c-3.6 -1.6 -5.2 -3.4 -9 -10.1 -1.6 -2.7 -3.1 -5.2 -3.5 -5.5 -0.4 -0.3 -1.3 -1.7 -2.1 -3.2 -0.8 -1.4 -2.8 -5 -4.5 -8 -1.7 -2.9 -4.1 -7.1 -5.3 -9.3 -1.3 -2.2 -2.9 -4.7 -3.6 -5.5 -0.7 -0.8 -1.6 -2.5 -1.9 -3.7 -0.4 -1.3 -1.3 -2.9 -1.9 -3.6 -2.7 -2.9 -4 -6.4 -4.5 -12.2 -0.4 -5.9 -0.2 -6.6 4.8 -16.1 2.9 -5.4 5.5 -10.1 5.9 -10.4 0.4 -0.3 1.1 -1.2 1.4 -2 0.4 -0.8 1.6 -2.8 2.7 -4.5 1.1 -1.6 2.6 -4.4 3.4 -6.2 0.8 -1.7 3 -5.6 5 -8.7 2 -3.1 3.6 -6.1 3.6 -6.6 0 -0.6 0.4 -1 1 -1 0.5 0 1.2 -1.1 1.6 -2.4 0.3 -1.3 1.9 -3.7 3.5 -5.2 l3 -2.9 35.2 -0.3 c30.7 -0.3 35.6 -0.1 38.7 1.3 4 1.8 8.2 7.5 14 19.1 2 3.9 4.2 7.7 4.8 8.5 1.7 1.9 9.8 15.9 13.8 23.9 2.6 5.1 3.3 7.8 3.4 12.3 0 5.2 -0.6 6.9 -4.7 14.4 -5.6 9.9 -5.5 9.7 -11.4 19.3 -2.6 4.1 -5 8.5 -5.4 9.8 -0.3 1.2 -1.1 2.2 -1.6 2.2 -0.5 0 -0.9 0.6 -0.9 1.3 0 0.8 -0.9 2.2 -2 3.2 -1.1 1 -2 2.3 -2 2.9 0 0.6 -1.8 3.1 -3.9 5.6 l-3.9 4.5 -35.3 0.2 c-28.1 0.2 -36 0 -38.4 -1.1z"/>
    <path d="M123.7 255.6 c-3.7 -1.4 -6.6 -4 -6.7 -6.2 0 -0.5 -0.9 -2 -2 -3.2 -1.1 -1.2 -2.5 -3.2 -3 -4.4 -1 -2.3 -2.1 -4.2 -11.5 -19.7 -12.2 -20 -12.6 -21 -13.3 -27.8 -0.4 -4.3 0 -6.3 2.2 -10.6 2.7 -5.7 11.9 -21.4 13.6 -23.4 0.5 -0.7 1 -1.4 1 -1.7 0 -0.2 2.2 -4 4.8 -8.3 2.7 -4.3 5.6 -9.4 6.5 -11.4 3 -6.6 7 -9.5 13.9 -10.3 7.9 -0.8 51.3 -0.8 60.1 0.1 6 0.5 7.1 1 10.2 4.2 1.9 1.9 3.5 3.9 3.5 4.2 0 0.4 2.3 4.4 5 8.8 2.8 4.4 5 8.3 5 8.7 0 0.3 1.3 2.4 2.8 4.7 3.4 5.1 4.1 6.3 8.9 15.5 2 3.9 4.1 7.2 4.5 7.2 0.5 0 0.8 0.9 0.8 1.9 0 1.1 0.5 2.3 1 2.6 1.4 0.8 1.1 11.3 -0.4 15 -1.3 3.3 -2.8 6 -9.8 17.3 -2.7 4.2 -4.8 8.1 -4.8 8.6 0 0.5 -0.7 1.7 -1.5 2.6 -1.5 1.6 -11.5 18 -11.5 18.7 0 0.3 -1.6 2.1 -3.5 4.1 l-3.4 3.7 -34.3 0.2 c-27.3 0.2 -35.1 0 -38.1 -1.1z"/>
    <path d="M0 116 l0 -64 31.1 0 c20.2 0 31.7 0.4 33 1.1 3.9 2.1 8.9 8.4 8.9 11.4 0 0.8 0.4 1.5 0.9 1.5 0.5 0 1.1 0.8 1.5 1.8 0.3 0.9 1.9 4 3.6 6.7 2.7 4.4 9.5 16.1 12.6 21.6 0.6 1 1.7 2.7 2.6 3.6 4.6 5.4 7.4 19.9 5 25.1 -2 4 -3.9 7.3 -7.3 12.3 -1.9 3 -3.8 6.2 -4.2 7.1 -0.3 1 -2.2 4.3 -4.2 7.3 -1.9 3.1 -3.5 5.9 -3.5 6.4 0 0.4 -1.1 2.1 -2.4 3.6 -1.3 1.5 -3.7 5.2 -5.1 8.2 -1.5 2.9 -4.1 6.5 -5.7 7.8 l-3 2.5 -31.9 0 -31.9 0 0 -64z"/>
    <path d="M127.2 103.1 c-3.9 -0.6 -10.2 -4.5 -10.2 -6.4 0 -0.5 -1.3 -2.7 -2.8 -5 -1.5 -2.3 -3.6 -5.9 -4.7 -7.9 -1.1 -2.1 -2.2 -3.8 -2.6 -3.8 -0.4 0 -0.9 -0.8 -1.3 -1.7 -0.3 -1 -1.7 -3.6 -3.1 -5.8 -1.4 -2.2 -3.3 -5.6 -4.3 -7.5 -0.9 -1.9 -1.9 -3.7 -2.2 -4 -1.6 -1.6 -6.9 -11.3 -8 -14.5 -2.4 -7.2 0.8 -18.9 7.1 -26 2 -2.3 7.4 -13.6 8.4 -17.7 l0.7 -2.8 55.4 0 c47.1 0 55.4 0.2 55.4 1.4 0 1.7 3 8.1 6.8 14.8 8.5 14.7 10.2 18.7 10.2 24 0 5.5 -3.6 14.3 -9 21.8 -0.6 0.8 -1.6 2.5 -2.3 3.7 -0.7 1.2 -3.3 5.6 -5.9 9.8 -2.7 4.1 -4.8 8 -4.8 8.5 0 0.6 -0.4 1 -0.9 1 -0.5 0 -1.4 1.5 -2.2 3.3 -1.7 4.2 -8.5 13.3 -10.7 14.3 -2.1 1 -63.1 1.4 -69 0.5z"/>
  </g>
  <g fill="#fadcc0">
    <path d="M107.9 395.4 c-1.1 -2.6 -6.5 -12.3 -12 -21.5 -5.5 -9.3 -10.5 -18.2 -11.1 -19.9 -0.5 -1.7 -0.8 -5.9 -0.6 -9.3 0.4 -5.8 1.1 -7.4 10.8 -23.7 5.7 -9.6 11.6 -19.7 13.1 -22.5 1.6 -2.7 3.7 -6.6 4.8 -8.5 1.1 -1.9 3.3 -5.1 4.9 -7 l3 -3.5 38.7 0 38.7 0 3.7 4.2 c2 2.2 4.9 6.7 6.6 10 1.6 3.2 3.9 7.2 5.2 8.9 1.3 1.7 2.3 3.3 2.3 3.7 0 0.3 3.8 7.1 8.5 15.2 4.7 8.1 9.2 16.3 10 18.2 2.9 7 1.7 12.6 -5 23.8 -14.5 24.3 -17.5 29.4 -19.1 32.8 l-1.8 3.7 -49.3 0 -49.4 0 -2 -4.6z"/>
    <path d="M0 269.6 l0 -67.6 30.3 0 c17.7 0 31.7 0.4 33.9 1 3.9 1.1 6.6 4 10.9 11.7 2.6 4.6 13.5 23.1 17.9 30.3 11.9 19.3 13.3 25.7 8 35.8 -6.5 12.7 -30.8 51.7 -33.4 53.6 -2.6 2 -4.3 2.1 -35.2 2.4 l-32.4 0.3 0 -67.5z"/>
    <path d="M385.5 258.2 c-1.9 -1.2 -5.3 -5.7 -8.9 -11.8 -3.2 -5.4 -7.2 -11.9 -8.8 -14.4 -1.5 -2.5 -6.3 -10.3 -10.5 -17.5 -7.1 -12.1 -7.6 -13.5 -8.1 -19.8 -0.4 -6.4 -0.2 -7.3 3.3 -14 2.1 -4 4.6 -8.3 5.5 -9.7 1 -1.4 2.9 -4.6 4.3 -7 6 -11.1 19.1 -32.7 20.9 -34.7 2.1 -2.2 8.6 -4.3 13.7 -4.3 l3.1 0 0 67.5 0 67.5 -5.7 0 c-3.9 0 -6.8 -0.6 -8.8 -1.8z"/>
  </g>
  <g fill="#c9f8b7">
    <path d="M82.8 396.2 c-2.4 -5.3 -8.6 -16.3 -10.2 -18.2 -0.7 -0.8 -2.2 -3.3 -3.2 -5.5 -1 -2.2 -3.1 -5.3 -4.8 -7 -4 -3.8 -8.8 -4.4 -40.3 -4.4 l-24.3 -0.1 0 -3.6 0 -3.7 31.8 0.5 c23.3 0.4 32.4 0.9 34.5 1.8 4.8 2.3 24.7 35.2 24.7 41 0 2.7 -0.3 3 -3.2 3 -2.8 0 -3.5 -0.6 -5 -3.8z"/>
    <path d="M254.7 336.6 c-2 -0.8 -4.4 -1.9 -5.2 -2.6 -1.5 -1.2 -28.7 -46.3 -32.4 -53.7 -4.2 -8.5 -2.7 -17.5 5.4 -30.3 1.2 -1.9 3.3 -5.5 4.7 -8 4.5 -8 12.4 -21.4 15.1 -25.7 1.5 -2.4 2.7 -4.6 2.7 -5.1 0 -0.4 1.5 -2.4 3.3 -4.4 5.2 -5.6 7.6 -5.9 46 -5.6 28 0.2 34.7 0.6 37.1 1.8 2.5 1.3 11.4 12.2 11.5 14.3 0.1 0.4 1.8 3.6 3.9 7 2.1 3.4 8 13.4 13 22.3 9.9 17.4 11.3 21.7 9.2 29.3 -1.2 4.6 -29.6 52.9 -33.7 57.3 -1.4 1.4 -4.4 3.1 -6.8 3.7 -6.7 1.7 -68.9 1.4 -73.8 -0.3z m75.4 -10.6 c2.1 -2.5 3.9 -5 3.9 -5.6 0 -0.6 0.9 -1.9 2 -2.9 1.1 -1 2 -2.4 2 -3.2 0 -0.7 0.4 -1.3 0.9 -1.3 0.5 0 1.3 -1 1.6 -2.2 0.4 -1.3 2.8 -5.7 5.4 -9.8 10.9 -17.7 16.1 -27.6 16.1 -30.7 -0.1 -3.7 -12.6 -28.1 -17.2 -33.2 -0.6 -0.8 -2.8 -4.6 -4.8 -8.5 -5.8 -11.6 -10 -17.3 -14 -19.1 -3.1 -1.4 -7.7 -1.6 -35.7 -1.3 l-32.2 0.3 -3 2.9 c-1.6 1.5 -3.2 3.9 -3.5 5.2 -0.4 1.3 -1.1 2.4 -1.6 2.4 -0.6 0 -1 0.4 -1 1 0 0.5 -1.6 3.5 -3.6 6.6 -2 3.1 -4.2 7 -5 8.7 -0.8 1.8 -2.3 4.6 -3.4 6.2 -1.1 1.7 -2.3 3.7 -2.7 4.5 -0.3 0.8 -1.1 1.8 -1.7 2.2 -0.6 0.4 -1.1 1.1 -1.1 1.5 0 0.4 -2.2 4.8 -4.9 9.6 -4 7.2 -4.7 9.4 -4.2 12 0.8 3.9 2.8 8.7 3.7 8.7 0.4 0 1.2 1.5 1.9 3.3 0.8 1.7 1.9 3.9 2.6 4.7 0.6 0.8 2.2 3.3 3.5 5.5 1.2 2.2 3.6 6.4 5.3 9.3 1.7 3 3.7 6.6 4.5 8 0.8 1.5 1.7 2.9 2.1 3.2 0.4 0.3 1.9 2.8 3.5 5.5 6.8 11.9 5.3 11.5 44.4 11.2 l32.3 -0.2 3.9 -4.5z"/>
    <path d="M122 259.7 c-4 -1.4 -8.3 -7.1 -18.8 -25.3 -3.8 -6.5 -9.2 -15.7 -12.1 -20.4 -7 -11.7 -7.4 -12.6 -7.8 -20 -0.5 -7.1 -0.4 -7.2 16.2 -35.5 3.2 -5.5 7.6 -13.1 9.8 -17 2.2 -3.8 5 -8.5 6.4 -10.3 4.8 -6.3 4.5 -6.3 45.3 -6 l36.9 0.3 3.1 3 c3.3 3.1 8.3 11.2 20.8 33.5 1.4 2.5 4.2 7.3 6.3 10.7 7.5 12.3 8.1 14 7.7 21.7 -0.3 6.6 -0.7 7.9 -6 16.6 -29.9 50.1 -28 47.4 -33.7 49 -5.3 1.5 -69.7 1.2 -74.1 -0.3z m74.5 -9.9 c1.9 -2 3.5 -3.8 3.5 -4.1 0 -0.5 9.7 -16.7 11 -18.2 0.6 -0.7 2.1 -3.2 3.3 -5.6 2.5 -4.7 7.8 -13.7 10.8 -18.1 3 -4.3 4.6 -11.5 3.1 -13.8 -0.7 -1.1 -1.2 -2.7 -1.2 -3.5 0 -0.8 -0.3 -1.5 -0.8 -1.5 -0.4 0 -2.5 -3.3 -4.5 -7.2 -4.8 -9.2 -5.5 -10.4 -8.9 -15.5 -1.5 -2.3 -2.8 -4.4 -2.8 -4.7 0 -0.4 -2.2 -4.3 -5 -8.7 -2.7 -4.4 -5 -8.4 -5 -8.8 0 -0.3 -1.6 -2.3 -3.5 -4.2 -3.1 -3.2 -4.2 -3.7 -10.2 -4.2 -8.8 -0.9 -46.2 -0.9 -54.1 -0.1 -6.9 0.8 -10.9 3.7 -13.9 10.3 -0.9 2 -3.8 7.1 -6.5 11.4 -2.6 4.3 -4.8 8.1 -4.8 8.3 0 0.3 -0.5 1 -1 1.7 -1.7 2 -10.9 17.7 -13.7 23.5 -2.4 4.9 -2.5 5.6 -1.3 9.5 0.7 2.3 2.1 5.4 3.1 6.8 1 1.5 2.3 3.7 2.9 5 0.5 1.3 3.5 6.5 6.6 11.4 6.3 9.9 9 14.5 11.3 19 0.8 1.7 2.3 3.9 3.3 4.9 1 1.1 1.8 2.5 1.8 3 0.1 2.2 3 4.8 6.7 6.2 3 1.1 10.3 1.3 35.1 1.1 l31.3 -0.2 3.4 -3.7z"/>
    <path d="M0 180.5 l0 -3.5 30.4 0 30.4 0 3 -2.5 c1.6 -1.3 4.2 -4.9 5.7 -8 1.5 -3 3.6 -6.3 4.6 -7.4 1 -1 1.5 -2.2 1.2 -2.5 -0.4 -0.3 -0.1 -0.6 0.5 -0.6 0.7 0 1.2 -0.4 1.2 -1 0 -0.5 1.6 -3.4 3.5 -6.5 2 -3 3.9 -6.3 4.2 -7.3 0.4 -0.9 2.3 -4.1 4.2 -7.1 5.9 -8.7 7.1 -11.3 7.8 -16.3 0.4 -2.8 -3 -12 -5.5 -15.1 -0.9 -0.9 -2 -2.6 -2.6 -3.6 -3.1 -5.5 -9.9 -17.2 -12.6 -21.6 -1.7 -2.7 -3.3 -5.8 -3.6 -6.7 -0.4 -1 -1 -1.8 -1.5 -1.8 -0.5 0 -0.9 -0.7 -0.9 -1.5 0 -3 -5 -9.3 -8.9 -11.4 -1.3 -0.7 -12.3 -1.1 -31.5 -1.1 l-29.6 0 0 -3.5 0 -3.5 30.3 0 c17.5 0 31.7 0.4 33.9 1 4.7 1.3 7.2 4.4 15.9 19.4 3.9 6.6 9.1 15.4 11.5 19.4 2.4 4 4.4 7.5 4.4 7.8 0 0.3 1.8 3.5 4 7.1 3.7 6.1 4 7.3 4 13.7 0 8.4 0.3 7.9 -18.2 38.5 -15.4 25.6 -15 24.9 -18.5 27.2 -2.6 1.7 -5.4 1.9 -35 1.9 l-32.3 0 0 -3.5z"/>
    <path d="M123.8 107 c-3.9 -1.2 -6.4 -3.2 -9.4 -7.6 -4.6 -6.6 -28.6 -47.6 -30.1 -51.3 -1 -2.3 -1.4 -5.7 -1.1 -9.6 0.3 -5.3 1.3 -7.5 8.2 -19.5 4.2 -7.4 8 -14.7 8.3 -16.2 0.5 -2.5 1 -2.8 4.5 -2.8 3.5 0 3.8 0.2 3.5 2.3 -0.7 4.3 -7.1 18.4 -9.6 21.2 -2.1 2.3 -6.7 10.9 -7.6 14.3 -0.8 2.9 0.9 8.1 4.9 14.6 1.7 2.8 3.3 5.3 3.6 5.6 0.3 0.3 1.3 2.1 2.2 4 1 1.9 2.9 5.3 4.3 7.5 1.4 2.2 2.8 4.8 3.1 5.8 0.4 0.9 0.9 1.7 1.3 1.7 0.4 0 1.5 1.7 2.6 3.8 1.1 2 3.2 5.6 4.7 7.9 1.5 2.3 2.8 4.5 2.8 4.9 0 0.4 1.4 2 3.1 3.5 2.6 2.3 4.3 2.8 11.4 3.4 10.1 0.9 56.3 0.1 58.7 -0.9 2.2 -1 9 -10.1 10.7 -14.3 0.8 -1.8 1.7 -3.3 2.2 -3.3 0.5 0 0.9 -0.4 0.9 -1 0 -0.5 2.1 -4.4 4.8 -8.5 2.6 -4.2 5.2 -8.6 5.9 -9.8 0.7 -1.2 1.7 -2.9 2.3 -3.7 3.8 -5.3 9 -16.2 9 -18.8 0 -2.1 -3.7 -9.9 -10.2 -21 -4.1 -7.1 -6.4 -12.3 -7.1 -15.9 -0.6 -3.3 -0.6 -3.3 3.2 -3.3 3.4 0 4 0.3 4.6 2.7 0.3 1.5 3.2 7.2 6.4 12.8 9.6 16.6 10.1 17.8 10.1 24.7 0 6.7 -2.4 12.8 -9 22.3 -1.7 2.4 -3 4.6 -3 4.9 0 0.2 -3.2 5.8 -7.1 12.3 -4 6.5 -8.3 13.7 -9.6 16 -3.7 6.4 -7.5 10 -11.9 11.2 -4.6 1.3 -67.4 1.4 -71.6 0.1z"/>
  </g>
  <g fill="#d6ccd0">
    <path d="M225 389.5 c0 -2.8 0.4 -3.5 2 -3.5 1.6 0 2 -0.7 2 -3.5 0 -2.8 0.4 -3.5 2 -3.5 1.5 0 2 -0.7 2 -2.7 0 -4.5 4.1 -11.3 6.7 -11.3 2.9 0 2.9 0.5 -0.5 6.2 -1.5 2.6 -4.9 8.6 -7.6 13.3 -2.7 4.7 -5.3 8.5 -5.8 8.5 -0.4 0 -0.8 -1.6 -0.8 -3.5z"/>
    <path d="M243 358.5 c0 -3.2 0.2 -3.5 3 -3.5 l3 0 -2.2 3.5 c-2.9 4.4 -3.8 4.4 -3.8 0z"/>
    <path d="M341 343.5 c0 -3 0.3 -3.5 2.4 -3.5 2.3 0 2.4 0.2 1.3 3.5 -0.6 1.9 -1.6 3.5 -2.4 3.5 -0.8 0 -1.3 -1.3 -1.3 -3.5z"/>
    <path d="M393 273 c0 -1.6 0.7 -2 3.5 -2 2.8 0 3.5 0.4 3.5 2 0 1.6 -0.7 2 -3.5 2 -2.8 0 -3.5 -0.4 -3.5 -2z"/>
    <path d="M339.8 178 c2 -3.3 4 -6 4.5 -6 1.3 0 0.7 6.8 -0.8 8.4 -0.8 0.8 -1.5 1.9 -1.5 2.5 0 0.6 -1.3 1.1 -3 1.1 l-2.9 0 3.7 -6z"/>
    <path d="M233.6 168.9 c-3.1 -5 -5.6 -10.2 -5.6 -11.5 0 -1.3 -0.6 -2.4 -1.3 -2.4 -0.7 0 -5.2 -6.6 -10 -14.7 -6.3 -10.7 -8.7 -15.6 -8.7 -18.1 0 -4.4 1.6 -3.8 4.7 1.8 1.4 2.5 4 7 5.8 10 1.8 3 5.7 9.8 8.7 15 3.1 5.2 7.7 13.1 10.5 17.5 6.5 10.7 6.8 11.5 3.9 11.5 -1.9 0 -3.5 -1.8 -8 -9.1z"/>
    <path d="M352 158.1 c0 -0.4 1 -2.3 2.3 -4.2 2.8 -4.3 8.8 -14.2 11.5 -19 5.1 -9.1 6.2 -9.9 6.2 -4.4 0 2.2 -0.8 4.3 -2 5.5 -1.1 1.1 -2 2.7 -2 3.5 0 0.8 -0.7 1.5 -1.5 1.5 -0.9 0 -1.5 0.9 -1.5 2.5 0 1.4 -0.4 2.5 -1 2.5 -0.5 0 -1 0.7 -1 1.5 0 0.8 -0.9 1.5 -2 1.5 -1.6 0 -2 0.7 -2 3.3 0 1.7 -0.7 4 -1.4 5 -1.3 1.7 -5.6 2.4 -5.6 0.8z"/>
    <path d="M385.8 113.3 c-3.4 -0.4 -3.8 -0.7 -3.8 -3.3 0 -2.4 -0.4 -2.8 -3.5 -3.2 -3.3 -0.4 -3.5 -0.2 -3.5 2.4 0 5.1 -1.4 3.5 -9.8 -11.2 -1.1 -1.9 -4.4 -7.5 -7.3 -12.5 -6.5 -11.1 -8.2 -14.2 -13.8 -24.1 -2.4 -4.4 -5.3 -9.1 -6.3 -10.6 l-1.9 -2.8 3 0 c2.6 0 3.1 -0.4 3.1 -2.5 0 -3.9 1.5 -3 4.9 3 3.6 6.4 3.7 6.5 1.2 6.5 -1.7 0 -1.6 0.5 1.2 5.8 2.6 4.6 3.3 5.3 3.5 3.5 0.5 -3.4 1.7 -2.8 4.6 2.1 3.1 5.4 3.2 5.6 0.6 5.6 -2 0 -2 0.1 -0.3 3.3 1.6 3 1.8 3.1 2.1 0.9 0.2 -1.3 0.8 -2.2 1.4 -2 0.6 0.2 5.2 7.3 10.4 15.8 5.1 8.5 10.4 16.5 11.9 17.7 2 1.8 3.8 2.3 8.1 2.3 4.7 0 5.4 0.2 5.4 2 0 2.1 -1.6 2.3 -11.2 1.3z m-12.8 -14.3 c0 -1.1 -0.7 -2 -1.5 -2 -1.3 0 -1.4 0.4 -0.5 2 0.6 1.1 1.3 2 1.5 2 0.3 0 0.5 -0.9 0.5 -2z"/>
    <path d="M209 109.7 c0 -2.3 2.5 -7.4 8.2 -17.2 4.5 -7.7 8.5 -14.1 9 -14.3 0.4 -0.2 0.8 -0.9 0.8 -1.6 0 -1.6 14.9 -27 16.1 -27.4 0.5 -0.2 0.9 -1 0.9 -1.8 0 -0.9 1.1 -1.4 2.9 -1.4 l2.9 0 -7.2 12.3 c-4 6.7 -9.5 16 -12.2 20.7 -2.8 4.7 -8.4 14.2 -12.5 21.3 -4 7 -7.7 12.7 -8.1 12.7 -0.5 0 -0.8 -1.5 -0.8 -3.3z"/>
    <path d="M341 36.5 c0 -1.9 0.5 -3.5 1 -3.5 0.6 0 1 -0.9 1 -2 0 -1.3 0.7 -2 2 -2 1.6 0 2 -0.7 2 -3 0 -3.6 -1.5 -4 -2.4 -0.5 -0.4 1.4 -1.1 2.5 -1.6 2.5 -0.6 0 -1 0.7 -1 1.5 0 1 -1 1.5 -3 1.5 l-3 0 3.5 -5.5 c1.9 -3 3.5 -5.6 3.5 -5.9 0 -0.2 2.3 -4.2 5 -8.7 2.8 -4.5 5 -8.8 5 -9.6 0 -0.7 0.7 -1.3 1.5 -1.3 2.2 0 1.9 5.3 -0.5 10 -1.1 2.2 -2 4.2 -2 4.5 0 0.3 0.9 0.5 2 0.5 1.1 0 2 0.2 2 0.4 0 0.3 -2.7 5.3 -6 11.3 -3.3 5.9 -6 11.3 -6 12 0 0.7 -0.7 1.3 -1.5 1.3 -1 0 -1.5 -1.1 -1.5 -3.5z m10 -17.7 c0 -1.7 -0.1 -2.9 -0.3 -2.7 -0.2 0.2 -1.1 1.6 -2 3.2 -1.7 2.6 -1.7 2.7 0.3 2.7 1.6 0 2 -0.7 2 -3.2z"/>
    <path d="M238.2 23.1 c-2.3 -3.7 -4.2 -7.1 -4.2 -7.5 0 -0.4 -0.7 -1.4 -1.5 -2.2 -1.5 -1.6 -2.1 -8.4 -0.7 -8.4 0.7 0 13.6 20.2 14.7 23.3 0.6 1.3 0.2 1.7 -1.7 1.7 -1.8 0 -3.3 -1.5 -6.6 -6.9z"/>
    <path d="M360 2.5 c0 -1.9 0.5 -2.5 2.1 -2.5 1.5 0 1.9 0.4 1.5 1.6 -0.3 0.9 -0.6 2 -0.6 2.5 0 0.5 -0.7 0.9 -1.5 0.9 -0.9 0 -1.5 -0.9 -1.5 -2.5z"/>
  </g>
  <g fill="#f4cca8">
    <path d="M101.7 389.7 c-3.2 -5.6 -8.3 -14.5 -11.4 -19.7 -9.1 -15.5 -9.7 -16.9 -9.7 -23.5 -0.1 -7 -1.7 -3.8 23.1 -46.5 10.3 -17.7 13.5 -21.9 17.3 -23.1 2.3 -0.7 16.3 -0.9 40.5 -0.7 30.8 0.2 37.4 0.6 39.3 1.8 2.6 1.7 6.4 7.6 21.9 34.5 16.1 27.7 16.3 28.2 16.3 34.3 0 6.2 -1.6 9.6 -13.6 29.4 -4.5 7.5 -9.4 15.9 -10.9 18.7 -2.3 4.6 -2.8 5.1 -5.9 5.1 -3.3 0 -3.4 -0.1 -2.6 -2.9 1.2 -4.2 3 -7.4 20.5 -36.6 2.4 -3.8 4.8 -8.6 5.4 -10.6 1.5 -4.5 0.8 -6.1 -10.4 -25.4 -4.7 -8.1 -8.5 -14.9 -8.5 -15.2 0 -0.4 -1 -2 -2.3 -3.7 -1.3 -1.7 -3.6 -5.7 -5.2 -8.9 -1.7 -3.3 -4.6 -7.8 -6.6 -10 l-3.7 -4.2 -35.7 0 -35.7 0 -3 3.5 c-1.6 1.9 -3.8 5.1 -4.9 7 -1.1 1.9 -3.2 5.8 -4.8 8.5 -1.5 2.8 -7.4 12.8 -13 22.3 -5.6 9.6 -10.5 18.9 -10.8 20.7 -0.8 4.8 0.4 7.6 11.6 26.4 9.8 16.5 14.1 24.8 14.1 27.7 0 0.9 -1 1.4 -2.7 1.4 -2.5 0 -3.5 -1.2 -8.6 -10.3z"/>
    <path d="M0 337 l0 -3 25.3 -0.1 c34.6 -0.1 36.3 -0.2 39.4 -2.5 1.5 -1.1 8.9 -12.3 16.5 -25 15.5 -25.6 19.8 -33.4 19.8 -36.3 0 -1.9 -5.8 -13.7 -11 -22.1 -4.4 -7.2 -15.3 -25.7 -17.9 -30.3 -4.3 -7.7 -7 -10.6 -10.9 -11.7 -2.1 -0.6 -15.7 -1 -32.4 -1 l-28.8 0 0 -3.1 0 -3 33.3 0.3 c26.5 0.2 33.6 0.6 35.3 1.7 2.2 1.4 7.3 8.6 10.7 15.1 1.1 1.9 5.6 9.8 10.2 17.5 18.2 30.8 17 28.1 17 36.5 0 7.2 -0.2 7.8 -5 16 -2.7 4.7 -5.7 9.7 -6.5 11.1 -7.7 13.4 -21.1 34.8 -23.5 37.6 -1.9 2.2 -4.4 3.7 -7 4.3 -2.2 0.5 -17.6 1 -34.2 1 l-30.3 0 0 -3z"/>
    <path d="M384.3 261.1 c-3.9 -2.4 -6.3 -6.1 -27.5 -42.1 -11.4 -19.3 -10.8 -18 -10.8 -25.6 0 -7.3 1 -9.6 13.3 -30.4 2.7 -4.7 6.8 -11.6 9 -15.5 13.8 -23.8 14.5 -24.5 25.2 -24.5 6.1 0 6.5 0.1 6.5 2.3 0 2 -0.8 2.5 -5.8 3.5 -3.6 0.8 -6.6 2.1 -7.9 3.5 -1.9 2 -14.8 23.4 -21 34.7 -1.4 2.4 -3.3 5.6 -4.3 7 -0.9 1.4 -3.4 5.7 -5.4 9.5 -5.1 9.6 -4.8 11.7 4.8 28 4.1 7.2 8.9 15 10.4 17.5 1.6 2.5 5.6 9 8.8 14.4 6.5 11 9.6 13.6 16.2 13.6 4 0 4.2 0.1 4.2 3 l0 3 -6.2 0 c-4.5 0 -7.2 -0.6 -9.5 -1.9z"/>
  </g>
  <g fill="#b4ed9d">
    <path d="M88.3 398.3 c-1.1 -3 -13.3 -24.4 -17.9 -31.4 -2.4 -3.6 -5.6 -7.1 -7.1 -7.9 -2 -0.9 -11.1 -1.4 -33 -1.8 l-30.3 -0.5 0 -2.9 0 -2.9 34 0.3 34 0.3 2.9 3 c1.7 1.7 5.3 7.1 8.2 12 19.4 33.5 19.4 33.5 13.4 33.5 -2.5 0 -3.8 -0.5 -4.2 -1.7z"/>
    <path d="M252 340.3 c-3.4 -1.3 -6.7 -5.6 -16.3 -21.8 -5.5 -9.3 -12.6 -21.4 -15.8 -26.7 -8.7 -14.6 -8.9 -15.1 -8.9 -22 0 -6.9 -0.5 -5.8 12.7 -28.3 18.4 -31.6 22.7 -38.5 25 -40.7 l2.5 -2.3 38.1 -0.3 c21 -0.2 39.7 0 41.5 0.3 4.1 0.8 7.2 4.1 12.6 13.5 2.4 4.1 6.6 11.3 9.3 16 21.2 36.1 21.3 36.3 21.3 42.3 0 6 -0.5 7 -19.7 38.9 -8.9 14.9 -16.9 27 -18.9 28.7 l-3.5 3.1 -39.2 -0.1 c-21.6 0 -39.9 -0.3 -40.7 -0.6z m73.5 -6.4 c2.4 -0.6 5.4 -2.3 6.8 -3.7 3.7 -4 32.4 -52.4 33.5 -56.6 0.6 -2.1 0.7 -4.9 0.2 -6.5 -0.7 -2.7 -14.3 -27 -22.2 -39.8 -2.1 -3.4 -3.8 -6.6 -3.9 -7 -0.1 -2.1 -9 -13 -11.5 -14.3 -3.8 -2 -62.8 -2.8 -69.5 -1 -3.9 1.1 -10.9 7 -10.9 9.2 0 0.5 -1.2 2.7 -2.7 5.1 -2.7 4.3 -10.6 17.7 -15.1 25.7 -1.4 2.5 -3.5 6.1 -4.7 8 -4.4 7.1 -7.5 14 -7.5 17 0 1.7 1 5 2.1 7.3 3.7 7.4 30.9 52.5 32.4 53.7 4.1 3.4 8.8 3.9 38.8 4 18.4 0 31.5 -0.4 34.2 -1.1z"/>
    <path d="M117.1 261.4 c-2.9 -2.4 -33.7 -52.8 -36.8 -60.2 -2.8 -6.7 -1.4 -13.6 4.7 -24.3 25.7 -44.9 31.3 -53.7 34.7 -54.6 1.5 -0.5 20 -0.8 41 -0.8 37.1 0 38.2 0.1 41 2.1 2.5 1.8 16.1 24 32.8 53.5 5.1 9 5.5 10.1 5.5 16.3 0 7.2 -0.1 7.3 -17 35.6 -16.1 26.8 -20 32.7 -22.5 33.8 -1.9 0.9 -13.7 1.2 -41.5 1.2 l-38.8 0 -3.1 -2.6z m76 -4.4 c4.9 -1.4 6.3 -3.2 17.9 -22.5 5.6 -9.3 12.7 -21.2 15.7 -26.3 8.5 -14.1 8.3 -16.3 -1.6 -32.5 -2.1 -3.4 -4.9 -8.2 -6.3 -10.7 -12.5 -22.3 -17.5 -30.4 -20.8 -33.5 l-3.1 -3 -34.2 -0.3 c-32.9 -0.2 -34.3 -0.2 -37.5 1.8 -3.2 1.9 -5.6 5.4 -14.1 20 -2 3.6 -7.1 12.4 -11.3 19.5 -11.9 20.4 -12.4 21.7 -11 27.1 0.7 2.5 2.1 5.7 3.1 7.2 1 1.5 5 8.1 8.8 14.7 14.5 24.8 16.5 28.1 19.8 32.7 2.3 3.1 4.6 5.1 6.7 5.7 4.5 1.3 63.3 1.4 67.9 0.1z"/>
    <path d="M0 184.5 l0 -3.5 30.8 0 c28.2 0 30.9 -0.2 33.5 -1.9 3.5 -2.3 3.1 -1.6 18.5 -27.2 21.2 -35.2 21.1 -34.7 14.2 -46.2 -2.2 -3.6 -4 -6.8 -4 -7.1 0 -0.3 -2 -3.8 -4.4 -7.8 -2.4 -4 -7.6 -12.8 -11.5 -19.4 -8.7 -15 -11.2 -18.1 -15.9 -19.4 -2.1 -0.6 -15.9 -1 -32.4 -1 l-28.8 0 0 -3 0 -3 33 0 c22.7 0 33.7 0.4 35.4 1.2 2.9 1.3 8.5 9.3 17.8 25.8 3.6 6.3 8.9 15.6 11.8 20.5 8.9 15.3 9.9 17.2 10.6 20.9 1 5.8 -0.2 9.4 -7.5 22.1 -8 14.1 -25.1 42.3 -28.2 46.7 -4 5.6 -5.7 5.8 -40.9 5.8 l-32 0 0 -3.5z"/>
    <path d="M119.3 110 c-2.8 -1.2 -6.7 -6.5 -15.5 -21.5 -3.9 -6.6 -10.7 -17.9 -14.9 -25.1 -9.3 -15.5 -9.9 -17 -9.9 -23.5 0 -5.6 0.1 -5.9 11.2 -25.6 7.5 -13.4 8.2 -14.3 11 -14.3 2.8 0 2.9 0.2 2.3 3.2 -0.9 4.1 -3.1 8.4 -10.7 21.5 -6.6 11.4 -7.7 15.3 -5.5 20.4 1.5 3.7 25.6 44.7 30.1 51.4 5.5 8 5.2 8 39.8 8.3 20.7 0.2 32.1 -0.1 34.9 -0.8 4.7 -1.3 8.5 -4.8 12.2 -11.3 1.3 -2.3 5.6 -9.5 9.6 -16 3.9 -6.5 7.1 -12.1 7.1 -12.3 0 -0.3 1.3 -2.5 3 -4.9 5 -7.3 9 -15.8 9 -19.3 0 -3.6 -1.5 -6.9 -9.8 -21.2 -4.9 -8.6 -8.2 -15.8 -8.2 -18.1 0 -0.5 1.5 -0.9 3.4 -0.9 2.7 0 3.6 0.5 4.1 2.3 0.4 1.2 3.9 7.5 7.7 14.1 13.3 22.5 13.5 24.6 4.4 40.1 -16.5 28 -29.3 48.5 -31.7 51 l-2.9 3 -39.3 0.2 c-21.7 0.1 -40.2 -0.2 -41.4 -0.7z"/>
  </g>
  <g fill="#e5b891">
    <path d="M102.1 393.7 c-1.9 -3.4 -7.4 -12.8 -12.3 -20.9 -4.8 -8.1 -9.5 -16.6 -10.4 -18.8 -2.9 -7.1 -1.6 -12.2 6.5 -26.6 13.5 -24.2 25.9 -44.9 29.4 -48.9 l3.4 -4 39.2 -0.3 c34.9 -0.3 39.5 -0.1 42.6 1.4 3.6 1.7 3.3 1.1 27.8 42.9 2.3 3.9 4.7 7.9 5.3 9 0.6 1.1 2.5 4.6 4.3 7.8 3 5.3 3.3 6.3 2.9 12.6 -0.3 6.6 -0.6 7.2 -12 26.2 -6.3 10.7 -12.3 20.9 -13.2 22.7 -1.3 2.5 -2.3 3.2 -4.6 3.2 -1.7 0 -3 -0.2 -3 -0.5 0 -1.4 6.9 -13.9 14.4 -26.3 10.1 -16.6 13.6 -23.4 13.6 -26.4 0 -2.8 -2.1 -6.8 -16.3 -31.3 -15.5 -26.9 -19.3 -32.8 -21.9 -34.5 -1.9 -1.2 -8.1 -1.6 -36.3 -1.8 -22.1 -0.2 -35.2 0 -37.5 0.7 -3.8 1.2 -7 5.4 -17.3 23.1 -22.7 39.2 -22.9 39.5 -22.9 43.4 0 3.6 1.6 7.1 8.9 19.6 12.9 21.9 16.6 28.7 17.4 31.2 0.7 2.6 0.5 2.8 -1.9 2.8 -2.3 0 -3.2 -1 -6.1 -6.3z"/>
    <path d="M0 339.5 l0 -2.5 28.8 0 c15.8 0 30.5 -0.5 32.7 -1 2.6 -0.6 5.1 -2.1 7 -4.3 2.4 -2.8 15.8 -24.2 23.5 -37.6 0.8 -1.4 3.8 -6.4 6.5 -11.1 8 -13.6 8.4 -11.9 -12 -46.5 -4.6 -7.7 -9.1 -15.6 -10.2 -17.5 -3.4 -6.5 -8.5 -13.7 -10.7 -15.1 -1.7 -1.1 -8.6 -1.5 -33.8 -1.7 l-31.8 -0.3 0 -2.5 0 -2.5 33.3 0.3 c37.5 0.3 36 0 41.7 8.2 1.7 2.5 6.3 10.3 10.4 17.3 4 7 9.7 16.9 12.6 21.8 11.1 19 11 18.9 11 25.8 0 7 0.5 6 -24 47.1 -11.9 19.9 -14.1 22.5 -20 23.6 -2.5 0.5 -18.1 0.9 -34.7 1 l-30.3 0 0 -2.5z"/>
    <path d="M384.5 264 c-3.3 -1.3 -5.9 -4.8 -16.4 -22.2 -24.1 -40 -26.2 -44.5 -24.6 -52 1 -4.5 3.3 -9 18 -34.3 20.6 -35.6 19.6 -34.5 31.5 -34.5 6.8 0 7 0.1 7 2.5 0 2.3 -0.3 2.5 -5 2.5 -9 0 -10.3 1.3 -23.7 24.5 -2.2 3.9 -6.3 10.8 -9 15.5 -13.4 22.7 -15.2 27.5 -12.2 33.3 1.2 2.2 14.7 25.3 22.5 38.4 12.1 20.1 14.3 22.3 22.7 22.3 4.3 0 4.7 0.2 4.7 2.5 0 2.4 -0.2 2.5 -6.7 2.4 -3.8 0 -7.7 -0.4 -8.8 -0.9z"/>
  </g>
  <g fill="#b6b6b5">
    <path d="M218 397.3 c0 -2.6 2.1 -6.9 9.2 -19.3 15 -26.2 16.4 -28.2 21.1 -30.8 2.9 -1.5 7 -1.7 43.2 -1.7 28.6 0 40.9 0.3 43.3 1.2 3.1 1.2 3.2 1.1 3.2 -1.6 0 -5.6 -0.1 -5.3 25.3 -49.6 14.5 -25.1 14.8 -25.4 28.4 -26.3 l8.3 -0.5 0 2.6 c0 2.3 -0.5 2.6 -4.7 3.2 -11.7 1.5 -11.1 1.1 -15.7 8.3 -4.5 7 -23.9 40.1 -31.3 53.5 -2.4 4.2 -4.3 9 -4.3 10.6 0 3.4 3.1 9.3 16.5 31.6 5.7 9.4 10.6 18 11 19.3 0.6 2.1 0.4 2.2 -4.9 2.2 l-5.5 0 -2 -4.4 c-2 -4.7 -17.4 -31.3 -22 -38 -4.3 -6.5 -4.9 -6.6 -44.6 -6.6 -38.1 0 -39.8 0.2 -44.1 5.1 -2.4 2.8 -9.3 14.4 -19 31.8 -5.6 10.2 -7.1 12.1 -9 12.1 -2 0 -2.4 -0.5 -2.4 -2.7z"/>
    <path d="M381.5 114.6 c-1.6 -0.7 -3.9 -2.4 -5.1 -3.7 -2.2 -2.6 -9.8 -14.7 -18.4 -29.4 -2.9 -4.9 -6.8 -11.4 -8.7 -14.4 -1.9 -2.9 -5.3 -8.8 -7.5 -13 -3.8 -7.2 -4 -7.9 -3.6 -14.7 0.4 -6 1.1 -8.3 4.8 -15 2.3 -4.3 5.7 -10.1 7.5 -12.9 1.8 -2.7 3.8 -6.3 4.6 -8 1.1 -2.4 2.1 -3.1 5.1 -3.3 3.3 -0.3 3.6 -0.1 3.1 1.9 -0.3 1.2 -3.4 6.9 -6.8 12.8 -12.1 20.9 -12.7 22.3 -12.2 26.6 0.2 2.5 2.6 7.5 6.1 13.4 3.1 5.1 5.6 9.5 5.6 9.7 0 0.2 1.6 2.8 3.5 5.8 1.9 3 3.5 6 3.5 6.6 0 0.5 0.5 1 1 1 0.6 0 1 0.4 1 1 0 1 4 7.9 9.7 16.7 1.8 2.8 3.3 5.5 3.3 6 0 0.5 1.7 2.6 3.9 4.7 3.7 3.7 4.1 3.8 11 3.8 l7.1 0 0 2.9 0 2.9 -7.7 0 c-4.3 -0.1 -9.1 -0.7 -10.8 -1.4z"/>
    <path d="M0 37.1 l0 -3.1 29.8 0 c16.3 0 31.5 -0.5 33.7 -1 2.6 -0.6 5 -2.1 6.8 -4.2 4 -4.7 15.7 -24.9 15.7 -27 0 -1.4 0.8 -1.8 3.5 -1.8 2.9 0 3.5 0.4 3.5 2 0 3.1 -2.4 8.1 -9.1 19.3 -11.6 19.2 -8.6 18.1 -50.6 18.5 l-33.3 0.3 0 -3z"/>
  </g>
  <g fill="#a3e08b">
    <path d="M87.7 389.8 c-12.2 -21.8 -16.9 -29.4 -19.8 -32.3 l-2.9 -3 -32.5 -0.3 c-31.4 -0.3 -32.5 -0.4 -32.5 -2.3 0 -1.8 1 -1.9 31.8 -1.9 18.8 0 33.2 0.4 35.4 1.1 4.5 1.2 6.9 4.5 20.6 28.5 9.2 16.2 10.8 20.4 7.4 20.4 -1.2 0 -3.6 -3.3 -7.5 -10.2z"/>
    <path d="M249.5 340.2 c-2 -1.3 -6.3 -7.3 -12.8 -18 -5.3 -8.9 -9.7 -16.3 -9.7 -16.5 0 -0.2 -3.7 -6.4 -8.2 -13.8 -7.9 -13 -8.2 -13.6 -8.6 -20.5 -0.3 -5.4 0 -7.9 1.3 -10.5 5.1 -9.9 34.1 -58.8 36.2 -60.9 l2.3 -2.5 42.1 0 42.1 0 3.2 3.6 c1.7 2 4.7 6.5 6.7 10 2 3.5 9.6 16.7 16.9 29.3 12.1 20.8 13.4 23.5 13.8 28.6 0.3 4.7 -0.1 6.6 -2.3 11.1 -4.7 9.3 -31.4 53.2 -34.9 57.4 l-3.3 4 -40.9 0.3 c-38.4 0.2 -41.1 0.1 -43.9 -1.6z m82.9 -5.3 c3.1 -2.6 30.5 -46.7 36.5 -58.6 3.6 -7.2 4.7 -4.6 -19.2 -45.3 -2.7 -4.7 -6.9 -11.9 -9.3 -16 -5.4 -9.4 -8.5 -12.7 -12.6 -13.5 -1.8 -0.3 -19.1 -0.5 -38.5 -0.3 l-35.1 0.3 -2.5 2.3 c-2.3 2.2 -6.6 9.1 -25 40.7 -16.2 27.7 -15.9 24 -3.8 44.3 3.2 5.3 10.3 17.4 15.8 26.7 9.6 16.2 12.9 20.5 16.3 21.8 0.8 0.3 17.8 0.6 37.7 0.6 l36.2 0.1 3.5 -3.1z"/>
    <path d="M117.3 263.5 c-2.5 -1.7 -8.6 -11.4 -24.6 -38.5 -15 -25.5 -14.7 -25 -14.7 -31.5 0 -6.5 0.3 -7.3 14.8 -32 19.3 -33.1 21.2 -36.1 23.8 -38.6 l2.6 -2.4 35.6 -0.3 c42 -0.4 45.1 -0.2 48.9 3.8 1.4 1.6 8.4 12.7 15.5 24.7 23.2 39.6 24.2 41.7 22 49.7 -1.4 5 -35.8 62.1 -38.9 64.6 -2.5 1.9 -4.2 2 -42.7 2 -33.9 0 -40.5 -0.2 -42.3 -1.5z m80.2 -3.7 c2.8 -1.3 14.1 -18.9 34.1 -53.5 7 -12.1 7 -13.7 -0.1 -26.2 -16.7 -29.5 -30.3 -51.7 -32.8 -53.5 -2.8 -2 -3.9 -2.1 -38 -2.1 -19.4 0 -36.5 0.3 -38 0.8 -3.1 0.9 -4.7 3.2 -19.4 28.2 -22.7 38.8 -22.6 38.5 -20 44.7 3.1 7.4 33.9 57.8 36.8 60.2 l3.1 2.6 35.8 0 c25.5 0 36.7 -0.3 38.5 -1.2z"/>
    <path d="M0 187 c0 -2 0.7 -2 30.5 -2 33.6 0 35.4 -0.3 39.4 -5.8 5.6 -7.9 31.4 -51.5 34.2 -57.8 2.6 -5.7 2.5 -6 -9.1 -25.9 -2.9 -4.9 -8.2 -14.2 -11.8 -20.5 -9.3 -16.5 -14.9 -24.5 -17.8 -25.8 -1.7 -0.8 -12.3 -1.2 -33.9 -1.2 -31 0 -31.5 0 -31.5 -2 0 -2.1 0.4 -2.1 34.4 -1.8 32.8 0.3 34.5 0.4 36.6 2.3 2.3 2.1 7.5 9.7 10.1 15 0.9 1.7 7.1 12.4 13.9 24 14.7 25.1 15.3 26.4 14.8 33 -0.4 5.2 -1.3 6.7 -22.3 42 -14.3 23.9 -16 26.3 -20.2 27.4 -2.3 0.7 -16.6 1.1 -35.5 1.1 -31.1 0 -31.8 0 -31.8 -2z"/>
    <path d="M118.5 111.1 c-2.8 -1.2 -4.8 -4.2 -20.1 -29.9 -21 -35.2 -20.4 -33.9 -20.4 -41.1 0 -5.9 0.3 -6.7 9.6 -23.1 7.1 -12.6 10.1 -17 11.5 -17 1.1 0 1.9 0.7 1.9 1.8 0 0.9 -3.8 8.4 -8.5 16.6 -10.3 18.2 -10.9 19.7 -10.1 23.8 0.3 1.8 4.5 9.8 9.2 17.8 4.8 8 12.1 20.3 16.3 27.4 4.2 7 9 14.5 10.7 16.5 l3.2 3.6 37.6 0 37.6 0 2.9 -3 c1.6 -1.6 8.9 -12.9 16.1 -25 7.2 -12.1 14.4 -24 15.9 -26.5 1.5 -2.5 3.5 -6.4 4.4 -8.8 1.7 -4.1 1.7 -4.5 -0.2 -8.6 -1 -2.4 -4.8 -9.3 -8.5 -15.4 -6.2 -10.5 -9.6 -17.4 -9.6 -19.3 0 -0.5 1.1 -0.9 2.5 -0.9 1.4 0 2.5 0.5 2.5 1.1 0 0.5 4.1 8 9.1 16.6 9.6 16.6 11.3 21.9 9.1 28.3 -0.7 1.7 -7.1 13.1 -14.3 25.3 -17.5 29.5 -19.9 33.4 -23.1 37.1 l-2.6 3.1 -40.4 0.2 c-22.2 0.1 -41.2 -0.2 -42.3 -0.6z"/>
  </g>
  <g fill="#d5a880">
    <path d="M99.7 392.3 c-2.4 -4.3 -8.5 -14.8 -13.5 -23.3 -9.1 -15.2 -9.2 -15.5 -9.2 -22 0 -7.3 -0.4 -6.4 16.2 -35 11.3 -19.6 19.3 -32.9 21 -35.1 3 -3.7 4.8 -3.9 45.3 -3.9 33.4 0 40.1 0.2 42.5 1.5 3 1.5 9.1 11.4 35.5 57.2 5.5 9.5 6.5 14.9 4.2 21.7 -0.9 2.5 -7 13.6 -13.6 24.6 -6.7 11 -12.1 20.5 -12.1 21 0 0.6 -1.3 1 -3 1 -1.6 0 -3 -0.2 -3 -0.5 0 -1.3 5 -10.3 15.7 -28.2 13.6 -22.8 14.1 -24.5 9.3 -33 -1.9 -3.2 -3.8 -6.7 -4.4 -7.8 -0.6 -1.1 -3 -5.1 -5.3 -9 -24.5 -41.8 -24.2 -41.2 -27.8 -42.9 -3.1 -1.5 -7.5 -1.7 -39.6 -1.4 l-36.1 0.3 -3.7 4.2 c-5.3 6 -35.5 58.3 -36.6 63.3 -0.8 3.5 1.2 7.9 11.4 24.9 11.1 18.6 14.7 25 15.6 27.9 0.5 1.9 0.3 2.2 -1.9 2.2 -2.1 0 -3.2 -1.3 -6.9 -7.7z"/>
    <path d="M0 341 c0 -2 0.5 -2 28.8 -2 15.8 -0.1 30.7 -0.5 33.2 -1 5.9 -1.1 8.1 -3.7 20 -23.6 21.3 -35.7 24 -40.7 24 -44.1 0 -3.4 -1.3 -6.1 -11 -22.8 -2.9 -4.9 -8.6 -14.8 -12.6 -21.8 -4.1 -7 -8.7 -14.8 -10.4 -17.3 -5.7 -8.1 -4.4 -7.9 -40.2 -8.2 -30.9 -0.3 -31.8 -0.4 -31.8 -2.3 0 -2 0.7 -2 34.4 -1.7 l34.5 0.3 3 2.9 c1.7 1.6 8.2 11.7 14.4 22.5 25.5 43.6 24.1 40.9 24.5 47.2 0.5 7 1.3 5.5 -26.5 52 -5.1 8.5 -10.7 16.8 -12.3 18.4 l-3.1 3 -34.5 0.3 c-34 0.3 -34.4 0.3 -34.4 -1.8z"/>
    <path d="M381.1 263.4 c-2.6 -2.2 -31.2 -48.6 -37 -60.1 -1.4 -2.9 -2.1 -6.1 -2.1 -10 0 -6.3 1.9 -10.4 17 -36.2 16.2 -27.9 19.8 -33.6 22.1 -35.3 1.6 -1.2 5.1 -2 10.7 -2.5 l8.2 -0.6 0 2.7 c0 2.5 -0.2 2.6 -5.5 2.6 -10.1 0 -9.7 -0.5 -30 34.5 -19.4 33.5 -19.7 34.3 -16 41.6 2.2 4.2 16.4 28.4 26.1 44.4 9.5 15.7 10.7 16.8 18.9 17.3 5.6 0.4 6.5 0.7 6.5 2.3 0 1.7 -0.8 1.9 -7.9 1.9 -7.1 0 -8.3 -0.3 -11 -2.6z"/>
  </g>
  <g fill="#97d37f">
    <path d="M85.1 383.2 c-13.8 -24.3 -16.3 -27.9 -20.9 -29.1 -2.2 -0.7 -16.1 -1.1 -33.9 -1.1 -29.6 0 -30.3 0 -30.3 -2 0 -2 0.7 -2 32.9 -2 21.4 0 33.9 0.4 36 1.1 3.4 1.2 6.2 4.8 12.8 16.4 2.2 3.9 6.6 11.5 9.7 16.9 6.4 11 8.1 16.6 5 16.6 -1.4 -0.1 -4.4 -4.5 -11.3 -16.8z"/>
    <path d="M247.1 340.3 c-2.5 -2.6 -32.1 -51.4 -37 -61 -1.3 -2.6 -2.1 -6.1 -2.1 -9.1 0 -5.4 1.6 -9 13 -28.7 17 -29.5 25.6 -43 28 -44.2 1.9 -1 12.8 -1.3 43.9 -1.3 l41.5 0 4.3 4.6 c2.4 2.6 4.3 5.1 4.3 5.6 0 0.6 3.1 6.3 6.9 12.7 26 43.8 26.1 44 26.1 51.2 0 7.7 0.2 7.2 -19 38.9 -6.2 10.2 -12.1 20.2 -13.1 22.2 -1 2 -3.6 5.5 -5.7 7.8 l-3.9 4 -42.2 0 -42.3 0 -2.7 -2.7z m87.5 -5.8 c3.5 -4.2 30.2 -48.1 34.9 -57.4 1.9 -3.9 2.5 -6.2 2.1 -8.4 -0.4 -1.7 -6.5 -13.2 -13.8 -25.6 -7.2 -12.5 -14.7 -25.5 -16.7 -29 -2 -3.5 -5 -8 -6.7 -10 l-3.2 -3.6 -39.1 0 -39.1 0 -2.3 2.5 c-2.1 2.1 -31.1 51 -36.2 60.9 -3 5.8 -1.7 10.1 7.4 25 4.4 7.4 8.1 13.6 8.1 13.8 0 0.2 4.4 7.6 9.7 16.5 6.5 10.7 10.8 16.7 12.8 18 2.8 1.7 5.4 1.8 40.9 1.6 l37.9 -0.3 3.3 -4z"/>
    <path d="M122.1 266.1 c-4.1 -0.5 -5.9 -1.3 -7.7 -3.4 -2.3 -2.7 -28 -45.3 -34.9 -58 -3.3 -6 -3.7 -7.4 -3.3 -12.1 0.5 -5.6 1.9 -8.5 16.3 -33.1 3.2 -5.5 8.9 -15.4 12.7 -22 3.8 -6.6 8.2 -13.3 9.9 -15 l2.9 -3 40.9 0 c34 0 41.3 0.2 43.6 1.5 2.8 1.5 8.7 11.1 30.2 48.4 9.8 17.2 10.3 18.3 10.3 23.8 0 7 0.4 6.2 -16.8 34.8 -18.4 30.6 -21.7 35.7 -24.4 37.2 -1.8 1 -10.7 1.3 -38.3 1.5 -19.8 0 -38.4 -0.2 -41.4 -0.6z m77.8 -6.8 c2.3 -2.2 31.1 -48.9 37 -60.2 2.3 -4.3 1.5 -8.6 -3.3 -17.3 -10.5 -19 -30.4 -52.1 -32.9 -54.8 -3.7 -3.9 -7.1 -4.2 -45.9 -3.8 l-32.6 0.3 -2.6 2.4 c-2.6 2.5 -4.5 5.5 -23.8 38.6 -13 22.3 -14.8 25.8 -14.8 29 0 3.3 0.7 4.6 14.7 28.5 16 27.1 22.1 36.8 24.6 38.5 1.8 1.3 8 1.5 39.4 1.5 l37.3 0 2.9 -2.7z"/>
    <path d="M0 188 c0 -2 0.7 -2 30.3 -2 17.9 0 31.7 -0.4 34 -1.1 4.2 -1.1 5.9 -3.5 20.2 -27.4 16.7 -28.1 21.4 -36.2 22 -38.7 0.9 -3.5 -0.5 -6.5 -14.5 -30.3 -6.8 -11.6 -13 -22.3 -13.9 -24 -2.6 -5.3 -7.8 -12.9 -10.1 -15 -2.1 -1.9 -3.8 -2 -35.1 -2.3 l-32.9 -0.3 0 -2.4 0 -2.5 30.8 0 c16.9 0.1 32.6 0.5 35 0.9 5.5 1.1 8.3 3.8 13.6 13.1 2.4 4.1 6.7 11.6 9.6 16.5 20.9 35.8 22 37.9 22 44.5 0 6.9 1.1 4.8 -23.3 45.5 -14.6 24.2 -15.2 25.1 -19 26.5 -1.8 0.6 -15.6 1 -35.8 1 -32.2 0 -32.9 0 -32.9 -2z"/>
    <path d="M115.3 110.2 c-2.7 -2.8 -5.3 -7 -26.1 -41.8 -13.2 -22.1 -13.5 -22.8 -13 -29.3 0.4 -4.8 1.8 -8 9.9 -22.3 7.8 -13.8 9.8 -16.7 11.7 -16.8 1.4 0 2.2 0.6 2.2 1.7 0 0.9 -4.3 9.2 -9.5 18.5 -6.5 11.5 -9.5 17.7 -9.5 19.9 0 1.8 1.4 5.7 3.1 8.8 7.5 13.3 32 53.9 34.3 56.6 l2.4 3 38.7 0 38.7 0 2.6 -3.1 c3.1 -3.7 5.5 -7.4 22.7 -36.4 14.7 -24.7 15.8 -27 14.9 -30.7 -0.4 -1.5 -4.7 -9.6 -9.5 -17.9 -4.8 -8.3 -9.1 -16.3 -9.5 -17.8 -0.5 -2.3 -0.3 -2.6 1.7 -2.6 1.9 0 3.2 1.4 5.9 6.2 1.9 3.4 5 8.6 6.8 11.7 7.6 13.1 9.2 17 9.2 22 0 2.7 -0.5 6.2 -1.1 7.8 -1.8 4.9 -34.3 58.4 -37.5 61.9 l-3.1 3.4 -41.6 0 -41.5 0 -2.9 -2.8z"/>
  </g>
  <g fill="#be956f">
    <path d="M97.5 391.3 c-2.7 -4.8 -7.8 -13.4 -11.3 -19.1 -9.8 -16.3 -11.2 -19.4 -11.2 -25.5 0 -3.8 0.8 -6.9 2.5 -10.3 1.4 -2.7 1.7 -3.8 0.7 -2.4 -0.9 1.4 -3.1 4.1 -4.9 6 l-3.1 3.5 -35.1 0.3 c-34.5 0.3 -35.1 0.2 -35.1 -1.7 0 -2 0.8 -2 32.9 -2.3 l33 -0.3 3.1 -3 c2.7 -2.5 6.6 -8.9 25.7 -40.9 11.3 -18.8 13.5 -23.6 12.9 -26.9 -0.4 -1.7 -3.4 -7.9 -6.7 -13.7 -22.9 -39.5 -29.3 -50 -32 -52.6 l-3 -2.9 -33 -0.3 c-31.8 -0.3 -32.9 -0.4 -32.9 -2.3 0 -1.8 1 -1.9 34.3 -1.9 36.5 0.1 36.6 0.1 40.6 5.1 2.2 2.8 22.7 37.6 31.9 54.1 5.2 9.5 5.4 9.9 5 16.6 l-0.3 7 2.8 -2.8 c1.9 -1.8 4.3 -3 7.4 -3.4 8 -1.1 71.8 -0.7 77.3 0.5 5.8 1.2 7.2 2.7 14.8 16 2.7 4.6 9.6 16.5 15.4 26.4 15.4 26.4 15.1 25.6 14.6 33.9 -0.3 7.2 -0.4 7.2 -12 26.6 -16.2 26.9 -14.9 25 -18 25 -2.6 0 -2.7 -0.1 -1.6 -2.7 0.7 -1.6 6.6 -11.7 13.1 -22.6 6.5 -10.9 12.5 -21.7 13.3 -24.1 1.9 -5.4 1.6 -6.2 -8.6 -23.6 -4 -6.9 -9.7 -16.8 -12.8 -22 -12.2 -21.3 -15.4 -26 -18.2 -27.5 -2.4 -1.2 -9.1 -1.5 -39.5 -1.5 -37.4 0 -39.3 0.2 -42.3 3.9 -2.4 3.1 -25 41.5 -33.9 57.6 -5 9.2 -4.7 10.7 5.9 28.5 12.4 21.1 16.7 28.6 17.8 31.5 0.9 2.3 0.7 2.5 -1.8 2.5 -2.3 0 -3.4 -1.2 -7.7 -8.7z"/>
    <path d="M384.5 266.9 c-1.7 -0.4 -4.3 -2.1 -5.7 -3.6 -2.6 -2.8 -29 -46 -35.4 -58.1 -4 -7.4 -4.5 -14.3 -1.5 -20.7 1 -2.2 7.8 -14.3 15.1 -27 7.3 -12.6 14.4 -25 15.8 -27.5 5.5 -9.8 9.1 -12 19.7 -12 6.7 0 7.5 0.2 7.5 1.9 0 1.6 -1.1 1.9 -7.2 2.6 -6.4 0.6 -7.6 1 -10.3 3.9 -1.6 1.8 -5.9 8.4 -9.5 14.7 -3.5 6.3 -9.1 15.9 -12.4 21.4 -9.9 16.8 -15.6 28 -15.6 30.9 0 3.6 1.7 6.9 20.2 37.8 8.7 14.7 17.2 27.8 18.9 29.2 2.6 2.2 4 2.6 9.5 2.6 6.2 0 6.4 0.1 6.4 2.5 0 2.4 -0.2 2.5 -6.2 2.4 -3.5 0 -7.7 -0.5 -9.3 -1z"/>
  </g>
  <g fill="#9e8e95">
    <path d="M219 395.1 c0 -4.2 1 -6.1 3.1 -6.1 1.5 0 1.9 -0.7 1.9 -3.5 0 -2.2 0.8 -4.3 2 -5.5 1.1 -1.1 2 -2.6 2 -3.4 0 -0.8 0.6 -2.1 1.4 -2.8 0.7 -0.8 1.7 -2.4 2 -3.6 0.4 -1.2 1.4 -2.2 2.2 -2.2 0.8 0 1.4 -1 1.4 -2.5 0 -2 0.5 -2.5 2.5 -2.5 1.4 0 2.5 0.3 2.5 0.6 0 0.3 -1.7 3.6 -3.9 7.2 -2.1 3.7 -5.1 8.7 -6.5 11.2 -1.4 2.5 -4 7.1 -5.6 10.3 -3.3 6.3 -5 7.2 -5 2.8z"/>
    <path d="M241 356.5 c0 -3.2 0.2 -3.5 3 -3.5 l3 0 -2.2 3.5 c-2.9 4.4 -3.8 4.4 -3.8 0z"/>
    <path d="M386 271 c0 -1.6 0.7 -2 3.5 -2 4 0 4.9 2.4 1.3 3.4 -3.8 1 -4.8 0.7 -4.8 -1.4z"/>
    <path d="M248.4 191.6 c-4.6 -2 -7 -5.5 -29.6 -43.6 -13.4 -22.5 -13.8 -23.4 -13.8 -30.5 0 -7.7 0.7 -9.3 11.6 -28 4.8 -8.2 9.7 -16.8 10.9 -19 12.7 -22.6 17.3 -29.2 21.2 -30.1 l2.5 -0.7 -3 -1.3 c-3.6 -1.5 -6.7 -5.6 -15.2 -19.9 -3.7 -6.3 -6.4 -12.1 -6.7 -14.5 -0.5 -3.7 -0.4 -4 1.8 -3.9 2 0 3.1 1.4 6.2 7.7 2.1 4.2 6.3 11.5 9.5 16.2 4.5 6.7 6.5 8.8 9.2 9.7 4.4 1.5 71.8 1.8 77.1 0.3 1.9 -0.5 4.7 -2.2 6.1 -3.7 3.7 -3.9 15.8 -24.2 16.5 -27.5 0.5 -2.5 1 -2.8 4.4 -2.8 3.2 0 3.7 0.3 3.2 1.8 -1 2.7 -6.4 12.5 -7.7 14.2 -3.2 3.9 -10.7 19.3 -11.2 23.2 -0.5 3.7 -0.1 5.3 3.4 11.9 2.2 4.2 5.6 10.1 7.5 13 1.9 3 7.1 11.6 11.7 19.3 11.6 19.7 14.6 24.1 17.5 26.4 3 2.4 3.2 3.2 0.5 3.2 -1.7 0 -2 0.7 -2 4.4 0 6.2 -1.9 10.7 -9.7 23.7 -3.8 6.3 -10.9 17.9 -15.8 25.9 -4.8 8 -10 16.4 -11.6 18.6 -5 7.3 -5.4 7.4 -51.2 7.4 -31.4 -0.1 -40.9 -0.4 -43.3 -1.4z m87 -7.6 c4.3 -4.4 36.6 -58.2 38.1 -63.5 0.7 -2.4 0.9 -5.2 0.4 -7 -0.5 -1.6 -7.7 -14.9 -16 -29.5 -8.4 -14.6 -15.8 -27.7 -16.6 -29.2 -0.7 -1.4 -3.1 -4.2 -5.2 -6.1 -5.2 -4.7 -7.4 -4.9 -48.8 -4.5 -32.7 0.3 -34.3 0.4 -36.9 2.4 -2.7 2 -6.9 8.8 -27.8 44.6 -11.5 19.7 -13.1 23.4 -12.2 28.1 0.4 1.9 5.1 11 10.6 20.1 5.5 9.1 10 16.8 10 17.1 0 0.9 14.1 23 16.9 26.5 1.5 1.9 3.9 3.8 5.2 4.1 1.3 0.4 19.6 0.7 40.6 0.6 l38.3 -0.2 3.4 -3.5z m2.6 -144.5 c0 -1.7 -0.2 -1.8 -2.5 -0.9 -1.3 0.5 -1.4 0.8 -0.3 1.5 1.9 1.3 2.8 1.1 2.8 -0.6z"/>
  </g>
  <g fill="#83b86c">
    <path d="M94.4 397.8 c-0.4 -1.3 -3.2 -6.6 -6.2 -11.8 -3 -5.2 -7.3 -12.6 -9.5 -16.5 -6.6 -11.6 -9.4 -15.2 -12.8 -16.4 -2.1 -0.7 -14.2 -1.1 -34.5 -1.1 -30.7 0 -31.4 0 -31.4 -2 0 -2 0.7 -2 34 -2 37.6 0 37.8 0 41.9 6.2 1.2 1.8 6.9 11.4 12.6 21.3 7.5 12.9 10.5 18.9 10.5 21.2 0 2.6 -0.4 3.3 -1.9 3.3 -1.2 0 -2.3 -0.9 -2.7 -2.2z"/>
    <path d="M252.1 344 c-6.4 -1 -5 0.9 -32.9 -46 -12.2 -20.7 -12.4 -21.1 -12 -29 l0.3 -6.8 -2.8 2.4 c-1.5 1.2 -4.6 2.6 -7 2.9 -2.3 0.3 -21.1 0.5 -41.7 0.3 -33.5 -0.3 -37.9 -0.5 -40.2 -2 -2.8 -1.9 -9.4 -12.1 -28.8 -45.1 l-12.2 -20.7 0.4 -7.5 c0.3 -6.9 0.2 -7.4 -1.2 -5.6 -3.1 3.9 -4.9 4.1 -39.9 4.1 -33.4 0 -34.1 0 -34.1 -2 0 -2 0.7 -2 31.4 -2 19.1 0 32.5 -0.4 34.3 -1 3.8 -1.4 4.4 -2.3 19 -26.5 21.6 -36.1 23.3 -39.1 23.3 -42.5 0 -3 -5 -12.5 -22 -41.5 -2.9 -4.9 -7.2 -12.4 -9.6 -16.5 -5.3 -9.3 -8.1 -12 -13.6 -13.1 -2.4 -0.4 -17.5 -0.8 -33.5 -0.9 -28.8 0 -29.3 0 -29.3 -2 0 -2.1 0.3 -2.1 34.9 -1.8 l34.9 0.3 2.6 2.4 2.6 2.4 0 -6.4 c0 -5.8 0.4 -7.2 4.9 -14.9 14.2 -25 14.2 -25 16.7 -25 1.3 0 2.4 0.6 2.4 1.3 0 0.6 -4.3 8.8 -9.6 18.1 -5.2 9.2 -9.7 18.1 -10 19.6 -0.7 3.3 0.7 6.1 12.8 26.4 20.8 34.8 23.4 39 26.1 41.8 l2.9 2.8 38.5 0 38.6 0 3.1 -3.4 c4.3 -4.7 36.7 -59.1 38 -63.8 0.9 -3.4 0.7 -4.5 -2.2 -10.1 -4.1 -7.8 -6.6 -12.4 -11.9 -21.2 -2.2 -3.9 -4.4 -8 -4.8 -9.2 -0.6 -2 -0.3 -2.3 2.4 -2.3 1.7 0 3.1 0.4 3.1 0.9 0 0.5 4 7.8 8.9 16.3 9.5 16.4 11.1 21.4 9.2 28.2 -1.9 7.2 -36.1 63.8 -40.4 67 -2.8 2.1 -3.8 2.1 -44.2 2.1 -40.4 0 -41.4 0 -44.2 -2.1 l-2.8 -2.1 0.3 5.9 0.4 5.8 2.5 -2 c2.5 -1.9 4.1 -2 43.5 -2 33.6 0 41.4 0.3 43.7 1.4 3 1.6 5.5 5.1 13.8 19.4 27.9 48.1 27.3 46.9 27.3 54 l0 6.3 3.1 -2.3 c3 -2.3 3.4 -2.3 40.2 -2.6 20.5 -0.2 39.6 -0.1 42.5 0.3 8.8 1.1 7.9 -0.2 38 52 l10.3 18 -0.3 6.5 c-0.4 7.5 -0.3 7.3 -22.8 44.5 -7.3 12.1 -14.5 23.3 -16.1 24.9 -2.1 2.2 -4.1 3.1 -8.1 3.7 -6.7 1 -72.8 0.9 -78.7 -0.1z m83.1 -8 c2.1 -2.3 4.7 -5.8 5.7 -7.8 1 -2 6.9 -12 13.1 -22.2 17.2 -28.4 19 -31.7 19 -35.9 0 -3.6 -3.8 -10.6 -26.1 -48.2 -3.8 -6.4 -6.9 -12.1 -6.9 -12.7 0 -0.5 -1.9 -3 -4.3 -5.6 l-4.3 -4.6 -38.5 0 c-28.6 0 -39 0.3 -40.9 1.3 -2.4 1.2 -13.9 19.1 -24.6 38.6 -2.6 4.7 -6.9 12.1 -9.6 16.5 -7 11.5 -7.7 14.5 -4.9 20.4 4.3 8.9 34.5 58.7 37.2 61.5 l2.7 2.7 39.3 0 39.2 0 3.9 -4z m-136.4 -73.8 c2.7 -1.5 6 -6.6 24.4 -37.2 16.1 -26.8 16.8 -28.1 16.8 -31.8 0 -1.7 -3.8 -9.5 -10.3 -20.8 -21.5 -37.3 -27.4 -46.9 -30.2 -48.4 -2.3 -1.3 -9.2 -1.5 -40.6 -1.5 l-37.9 0 -2.9 3 c-1.7 1.7 -6.1 8.4 -9.9 15 -3.8 6.6 -9.5 16.5 -12.7 22 -11.7 20.1 -15.4 26.9 -16 29.7 -0.5 2.1 0.2 4.5 3 9.6 6.9 12.6 32.6 55.2 34.9 57.9 3.3 3.8 7.3 4.1 46.1 3.9 25 -0.1 33.6 -0.4 35.3 -1.4z"/>
  </g>
  <g fill="#877e80">
    <path d="M216.3 396.1 c0.3 -2.6 4.3 -10.2 11.7 -22.6 6.1 -10.3 11.6 -19.9 12.1 -21.4 1.3 -3.6 6.3 -5.8 15.2 -6.7 5.7 -0.5 6.7 -0.4 6.7 0.9 0 1.1 -1.3 1.8 -3.7 2.2 -5.8 1 -8.8 2.4 -11.6 5.3 -4.4 4.8 -25.7 41.9 -25.7 44.9 0 0.7 -1.1 1.3 -2.6 1.3 -2.5 0 -2.6 -0.2 -2.1 -3.9z"/>
    <path d="M363.3 395.5 c-1 -4.5 -1 -4.6 0.9 -2.8 1.1 1 2.6 3 3.4 4.5 1.4 2.7 1.3 2.8 -0.9 2.8 -2 0 -2.5 -0.7 -3.4 -4.5z"/>
    <path d="M338 353 c-2.7 -2.1 -6.5 -3.5 -12.2 -4.5 -2.5 -0.4 -3.8 -1.1 -3.8 -2.1 0 -1.3 1.3 -1.5 7.2 -1.2 l7.2 0.3 0.9 -3.2 c0.8 -2.6 1.5 -3.3 3.5 -3.3 1.9 0 2.3 0.4 1.7 1.8 -0.4 0.9 -1 4.5 -1.4 7.9 l-0.6 6.2 -2.5 -1.9z"/>
    <path d="M379 274 c0 -4 4.4 -6.2 13.8 -6.8 7.1 -0.5 7.2 -0.4 7.2 2 0 2.4 -0.3 2.6 -6.9 3 -4.6 0.4 -8.2 1.3 -10.5 2.6 l-3.6 2.1 0 -2.9z"/>
    <path d="M251.3 194.1 c-6.8 -1.1 -7.4 -1.9 -24.9 -31.7 -24.5 -41.8 -23.4 -39.7 -23.4 -45.3 0 -5.6 1.1 -8.2 9.5 -22.6 18.6 -31.9 26.1 -44.6 29.1 -49.2 1.9 -2.9 3.4 -5.4 3.4 -5.6 0 -0.3 -2.2 -3.7 -4.8 -7.8 -7.9 -12 -15.1 -25.2 -15.8 -28.6 -0.6 -3 -0.4 -3.3 1.9 -3.3 1.9 0 2.6 0.7 3.1 2.8 0.8 3.2 13.5 24.7 17.1 29.1 4.6 5.4 6.6 5.6 46.5 5.6 41.1 0 39.4 0.3 47.8 -7.8 l4.3 -4.2 -2.1 5.9 c-1.1 3.3 -2 8.1 -2 10.8 0 2.6 -0.2 4.8 -0.5 4.8 -0.2 0 -2.4 -1 -4.7 -2.2 -4.2 -2.2 -5.1 -2.3 -41.8 -2.6 -24.8 -0.2 -38.8 0 -41.2 0.8 -5.1 1.5 -8.7 6.4 -22.3 30.5 -1.2 2.2 -6.1 10.8 -10.9 19 -13.1 22.4 -13.6 24.4 -9 33.1 5.6 10.6 31.9 54.3 35.5 58.8 4.3 5.4 5.6 5.6 45.8 5.6 42.2 0 43 -0.1 48 -7.4 1.6 -2.2 6.8 -10.6 11.6 -18.6 4.9 -8 12 -19.6 15.8 -25.9 10 -16.5 10.8 -19.5 8.1 -30.8 l-0.7 -2.8 2.9 2.7 c4.2 3.9 9.5 5.8 16.4 5.8 5.8 0 6 0.1 6 2.6 l0 2.6 -8.4 -0.3 -8.5 -0.4 -0.5 3 c-0.4 1.6 -1.7 4.5 -3 6.5 -3 4.6 -7.7 12.6 -23.4 40 -9.4 16.4 -13.8 23.1 -16.2 24.8 -3.2 2.2 -3.9 2.2 -33.4 2.3 -16.6 0.1 -34.8 0.2 -40.6 0.4 -5.8 0.1 -12.4 -0.1 -14.7 -0.4z"/>
    <path d="M56 38.7 c0 -0.9 1.2 -1.8 3 -2.1 1.7 -0.3 4.4 -0.9 6.1 -1.2 1.7 -0.3 4.9 -2.2 7.1 -4.2 l3.9 -3.6 -0.3 3.9 c-0.4 5.4 -3.6 7.4 -12.6 8.2 -6.1 0.5 -7.2 0.4 -7.2 -1z"/>
    <path d="M77 25.4 c0 -1.3 4.4 -8.4 5.2 -8.4 0.9 0 1.1 5.1 0.2 7.4 -0.6 1.5 -5.4 2.4 -5.4 1z"/>
    <path d="M83 15.4 c0 -1.2 3.4 -6.4 4.2 -6.4 0.4 0 0.8 1.6 0.8 3.5 0 3.1 -0.3 3.5 -2.5 3.5 -1.4 0 -2.5 -0.3 -2.5 -0.6z"/>
    <path d="M355.4 6.4 c0.3 -0.9 0.6 -2.7 0.6 -4 0 -1.7 0.6 -2.4 2 -2.4 2.5 0 2.5 0.7 0 4.8 -2.1 3.3 -3.7 4.4 -2.6 1.6z"/>
    <path d="M89.1 3 c0.6 -1.6 1.7 -3 2.5 -3 0.9 0 1.4 1.1 1.4 3 0 2.5 -0.4 3 -2.4 3 -2.3 0 -2.4 -0.2 -1.5 -3z"/>
  </g>
  <g fill="#9e7b5a">
    <path d="M97.6 394.7 c-1.5 -2.8 -7.4 -12.8 -12.9 -22.1 -9.6 -15.9 -10.1 -17.2 -10.5 -23.3 -0.4 -5.4 -0.7 -6.3 -2.1 -5.8 -4.7 1.9 -15.4 2.5 -42.3 2.5 l-29.8 0 0 -2.5 0 -2.4 33.4 -0.3 33.5 -0.3 2.9 -2.8 c1.7 -1.6 6.7 -9.1 11.3 -16.8 4.6 -7.6 10.4 -17.2 12.8 -21.1 17.8 -29.5 17.6 -28.7 9.9 -42.5 -9.2 -16.6 -29.7 -51.4 -31.9 -54.2 -3.9 -5 -4.3 -5 -39.1 -5.1 l-32.8 0 0 -2.6 0 -2.5 34.3 0.3 c38.3 0.3 38.1 0.3 42.9 7.5 2.7 4 10.3 17 26.2 44.7 7.5 13 9.9 18 10.3 21.8 0.5 4.1 0.9 4.8 2.2 4.1 2.5 -1.3 80.5 -1.5 85.1 -0.3 4.4 1.2 8.1 5.3 13.9 15.7 2.1 3.7 6.2 10.9 9.1 15.8 19.2 32.6 22 38.3 22 44.8 0 2.6 -0.3 4.7 -0.7 4.7 -1 0 -5.4 6.6 -12.9 19.5 -3.2 5.5 -6.9 11.6 -8.2 13.5 -1.3 1.9 -3 6.1 -3.9 9.2 -1.5 5.4 -1.8 5.8 -4.5 5.8 -2.6 0 -2.8 -0.3 -2.2 -2.2 0.4 -1.3 1.9 -4.1 3.4 -6.3 1.5 -2.2 7.3 -11.8 13 -21.3 11.7 -19.7 12.7 -23 9 -30.3 -1.3 -2.4 -7 -12.5 -12.8 -22.4 -5.8 -9.9 -12.7 -21.8 -15.4 -26.4 -7.6 -13.3 -9 -14.8 -14.8 -16 -5.5 -1.2 -63.4 -1.6 -71.3 -0.5 -5.4 0.8 -9.3 4.1 -13.5 11.7 -1.6 2.9 -5.3 9.3 -8.2 14.2 -16.2 27.6 -24.2 42.2 -24.7 45 -0.6 3.6 1.7 8.6 10.2 22.5 9.5 15.6 16.3 27.5 17 29.8 0.5 1.9 0.3 2.2 -2.2 2.2 -2.3 0 -3.3 -0.9 -5.7 -5.3z"/>
    <path d="M389 269 c-10 -1 -10 -1.1 -24.2 -24.5 -26.1 -43.3 -25.8 -42.7 -25.8 -50.6 0 -5.4 0.4 -6.7 3.9 -11.7 4 -5.8 8.3 -12.8 17.4 -28.2 2.7 -4.7 6.5 -11 8.4 -14 1.9 -3 5.2 -9.2 7.4 -13.6 2.1 -4.5 4.6 -8.5 5.5 -8.8 0.9 -0.3 5.4 -0.9 10 -1.2 l8.4 -0.7 0 2.7 c0 2.5 -0.2 2.6 -6 2.6 -9 0 -12.9 2.6 -18.2 12 -1.4 2.5 -9.1 15.9 -17.2 29.9 -8 14 -14.9 27 -15.2 28.9 -0.5 2.7 0 4.7 2.8 10 6.2 11.7 32.9 55.6 35.6 58.5 2.9 3.1 7.7 4.7 14 4.7 3.8 0 4.2 0.2 4.2 2.5 0 2.8 0.3 2.7 -11 1.5z"/>
  </g>
  <g fill="#719b5f">
    <path d="M95.6 396.6 c-1.5 -3.6 -18.1 -32.4 -22.4 -38.9 -4.5 -6.7 -4.4 -6.7 -40.7 -6.7 -31.8 0 -32.5 0 -32.5 -2 0 -2 0.7 -2 34.6 -2 39.1 0 37.7 -0.2 43.1 7.9 3.9 5.8 17.2 28.9 20.7 35.8 3.2 6.4 3.4 9.3 0.6 9.3 -1.3 0 -2.5 -1.2 -3.4 -3.4z"/>
    <path d="M249.5 344.5 c-2.1 -0.8 -4.7 -2.4 -5.7 -3.7 -2 -2.7 -33.7 -55.6 -36.3 -60.8 -1 -1.9 -1.9 -5.8 -1.9 -8.5 l-0.1 -5.1 -3.9 1.4 c-5.9 2 -83.1 1.3 -86.4 -0.8 -2.6 -1.7 -9.2 -11.9 -27.7 -43 -12.5 -20.9 -12.9 -21.7 -13.3 -28.1 l-0.4 -6.7 -2.7 1.4 c-2.1 1.1 -9.7 1.4 -36.8 1.4 -33.6 0 -34.3 0 -34.3 -2 0 -2 0.7 -2 32.8 -2 23.7 -0.1 33.3 -0.4 34.9 -1.3 3 -1.7 4.8 -4.2 14.8 -20.7 25.7 -42.5 27.5 -45.7 27.5 -49.3 0 -3.8 -34.2 -63.2 -39.6 -68.7 l-3.4 -3.5 -33.5 -0.3 c-32.4 -0.3 -33.5 -0.4 -33.5 -2.3 0 -1.8 1 -1.9 33.5 -1.9 27.1 0 34.2 0.3 37 1.4 l3.5 1.5 0 -4.9 c0 -5.1 0.7 -6.7 12.5 -27.4 5.3 -9.4 6.3 -10.6 8.8 -10.6 l2.7 0 -1.5 3.6 c-0.8 1.9 -4.6 8.8 -8.4 15.2 -13 22.2 -13 21 -2.3 38.7 4.3 7.2 10.4 17.5 13.6 23 3.2 5.5 6.9 11.6 8.1 13.5 1.2 1.9 3.7 5.9 5.5 8.8 5.7 9.2 3.1 8.7 46.6 8.7 37.3 0 38.3 -0.1 41.1 -2.1 1.5 -1.2 6.2 -7.7 10.3 -14.5 16.8 -27.4 26 -42.9 28 -47 3.8 -7.4 3.1 -10 -7 -27.5 -10.5 -18.2 -11.3 -20.4 -7.8 -20.4 1.8 0 2.9 0.9 4.2 3.8 1 2 4.7 8.6 8.3 14.6 3.6 6 7.2 12.4 7.9 14.2 2.2 5.3 1.8 12.8 -1 17.2 -1.3 2 -7 11.6 -12.6 21.2 -23.8 40.6 -24 41 -27.3 42.8 -2.9 1.5 -7.1 1.7 -44.2 1.7 -31.6 0 -41.5 -0.3 -43.2 -1.3 -2.2 -1.2 -2.3 -1.1 -2.3 1.7 0 2.9 0.2 3 2.6 2.1 1.5 -0.6 19.1 -1 43.1 -1 33.9 0 41 0.2 43.6 1.5 2.4 1.1 4.7 4.1 8.8 11.2 3.1 5.4 11 18.8 17.5 29.8 15.1 25.6 16.4 28.2 16.4 32.1 0 3.3 0.1 3.3 3.3 2.6 1.7 -0.4 21.7 -0.7 44.4 -0.7 40.2 0 41.2 0.1 44 2.1 3 2.2 5.2 5.7 17.8 27.4 4.3 7.4 11.2 19.4 15.4 26.5 7.2 12.4 7.6 13.3 7.9 20.2 0.4 6.7 0.2 7.7 -2.6 12 -1.6 2.7 -6.4 10.9 -10.7 18.3 -14.3 24.8 -23.5 39.7 -25.8 41.7 -4.4 4 -7.5 4.3 -47.6 4.3 -30.6 -0.1 -39.4 -0.4 -42.6 -1.5z m77.8 -3.4 c4.5 -0.6 6.5 -1.5 8.7 -3.7 2.5 -2.6 22.2 -34.5 33.8 -54.6 7.1 -12.4 7.1 -12.3 -5 -33.3 -22.1 -38.3 -27.3 -46.7 -30 -49 -4 -3.4 -8.7 -3.7 -47.3 -3.3 -25.1 0.2 -34.6 0.6 -36.2 1.6 -2.8 1.6 -6.1 6.4 -15.5 22.7 -4.2 7.2 -10.6 18.2 -14.3 24.5 -12.7 21.8 -13.2 23.6 -9.4 31.3 1.2 2.3 5.7 10.3 10.1 17.7 27.9 47 26.5 45 32.9 46 6.4 1 65.4 1.1 72.2 0.1z m-126.6 -78.7 c2.6 -2 7.1 -8.8 22.5 -34.4 15.3 -25.4 17.8 -30.3 17.8 -34.5 0 -4 -3.6 -11 -20.5 -40 -3.2 -5.5 -7.3 -12.5 -9 -15.5 -5.6 -9.8 -8.8 -14.1 -11.6 -15.6 -2.3 -1.1 -9.8 -1.4 -41 -1.4 l-38.2 0 -4.1 4.3 c-2.2 2.4 -6.6 8.8 -9.7 14.3 -3.2 5.4 -10.8 18.6 -16.9 29.2 -8.4 14.3 -11.4 20.5 -11.8 23.7 -0.4 4.2 0.2 5.5 11.8 25.2 16.4 27.9 25.7 42.8 27.4 44.2 3.2 2.6 8.4 3 43.8 2.8 35.5 -0.2 36.7 -0.3 39.5 -2.3z"/>
  </g>
  <g fill="#737569">
    <path d="M215 398.9 c0 -1.5 3.9 -6.9 5 -6.9 0.4 0 0.3 1.8 -0.2 4 -0.8 2.9 -1.6 4 -2.9 4 -1.1 0 -1.9 -0.5 -1.9 -1.1z"/>
    <path d="M242.6 351.5 c1 -6.7 2.1 -7.1 21.5 -7.9 9.5 -0.4 29.1 -0.6 43.5 -0.5 l26.3 0.3 2.9 -3.9 c2.5 -3.5 11.1 -17.4 31.4 -50.7 3.2 -5.4 6.6 -11.8 7.5 -14.3 1.8 -5.5 4.5 -7.1 13.1 -8.1 7.6 -0.8 11.2 0 11.2 2.6 0 1.6 -0.5 1.8 -3.3 1.3 -5.6 -0.9 -11.8 1.5 -16.2 6.1 -2.2 2.4 -8.2 11.7 -13.4 20.7 -5.1 9 -11.9 20.9 -15.1 26.4 -9.1 15.8 -10.6 18.8 -11.9 22.7 l-1.3 3.8 -5.6 -0.8 c-3.1 -0.4 -22.8 -0.7 -43.7 -0.7 -35.5 0 -38.2 0.1 -41.5 1.9 -1.9 1.1 -4.1 2.6 -4.8 3.5 -1 1.3 -1.1 0.9 -0.6 -2.4z"/>
    <path d="M247.3 193.5 c-2.9 -1.3 -5.3 -3 -5.3 -3.6 0 -1.3 -10 -19.5 -20 -36.4 -3.2 -5.5 -7.7 -13.4 -9.9 -17.5 -2.3 -4.1 -5.5 -9 -7.2 -10.8 -3 -3.2 -3.1 -3.6 -2.5 -9.4 0.6 -4.7 1.7 -7.4 5 -12.7 2.4 -3.6 8.7 -13.8 14 -22.6 5.3 -8.8 10.1 -16.7 10.6 -17.5 5.4 -8.7 9.1 -15.5 10.2 -18.7 0.7 -2.1 1.7 -4.1 2.3 -4.5 0.6 -0.5 0.6 -0.8 -0.2 -0.8 -0.6 0 -2.3 -2.4 -3.6 -5.4 -1.4 -3 -5.9 -11.3 -10.1 -18.5 -4.2 -7.2 -7.6 -13.5 -7.6 -14.1 0 -0.5 0.9 -1 2 -1 1.3 0 2.5 1.2 3.5 3.6 2.1 5 14 24.9 18.7 31.2 l3.9 5.2 -3.1 3.8 c-2.9 3.4 -11.5 17.5 -25.8 42.2 -12.3 21.1 -16.2 28.6 -16.2 30.9 0 1.3 2.6 6.9 5.9 12.5 15.4 26.5 29.5 50.3 32.2 54.3 5.5 7.9 2.8 7.5 48.9 7.4 l41.1 -0.2 -0.3 2.3 -0.3 2.3 -40.5 0.2 -40.5 0.3 -5.2 -2.5z"/>
    <path d="M382.3 118.3 c-1.7 -0.3 -2.3 -1.1 -2.3 -3 0 -2.4 0.2 -2.5 3.8 -1.9 4.2 0.8 9.4 1.3 13.5 1.5 2 0.1 2.7 0.6 2.7 2.1 0 1.8 -0.6 2 -7.7 1.9 -4.3 -0.1 -8.8 -0.4 -10 -0.6z"/>
    <path d="M0 39.5 l0 -2.5 30.8 0 c16.9 0 32.5 -0.5 34.7 -1 2.5 -0.5 5 -2 6.5 -3.9 3.3 -3.9 14.5 -22.6 16.7 -27.9 1.4 -3.1 2.4 -4.2 4.1 -4.2 3.6 0 2.7 3.4 -4 14.9 -3.4 5.8 -7.7 13.5 -9.6 17 -5.5 10.2 -5 10.1 -45.4 10.1 l-33.8 0 0 -2.5z"/>
    <path d="M335.1 40.1 c-1.1 -0.7 -1 -1.1 0.7 -2 2.2 -1.2 3.9 0 2.7 1.9 -0.8 1.2 -1.6 1.2 -3.4 0.1z"/>
  </g>
  <g fill="#658656">
    <path d="M95.6 394.3 c-3.4 -6.9 -16.6 -29.9 -20.9 -36.4 -5.3 -8.1 -4.2 -7.9 -41.6 -7.9 -32.4 0 -33.1 0 -33.1 -2 0 -2 0.7 -2 32.8 -2 18.9 0 34.2 0.4 36.3 1 5.3 1.5 7.8 4.5 17.7 21.3 15.3 26 17.7 31.7 13.4 31.7 -1.2 0 -2.7 -1.9 -4.6 -5.7z"/>
    <path d="M250.2 345.5 c-6.3 -2.3 -7.8 -4.3 -25.4 -34 -19.3 -32.5 -19.8 -33.4 -19.8 -39.3 0 -5.1 0 -5.1 -2.6 -4.2 -1.4 0.6 -4.1 1 -6 1 -5 0 -4.4 -2.5 1.1 -3.9 3 -0.8 5.2 -2.1 6.9 -4.4 4.5 -5.9 36.4 -59.6 37.6 -63.2 0.7 -2 0.9 -4.8 0.5 -6.3 -0.6 -2.8 -10.1 -20.1 -20.5 -37.7 -3.2 -5.5 -7.7 -13.4 -9.9 -17.5 -4.9 -9.1 -10.2 -14.7 -14.4 -15.5 -1.8 -0.3 -20.2 -0.5 -40.9 -0.3 l-37.6 0.3 -2.7 2.5 c-2.7 2.5 -7.9 11 -25.7 42 -13.8 23.9 -14.1 24.6 -13.6 29.9 0.4 3.7 3.1 9 13.3 26.1 18.3 30.8 25.1 41.3 27.6 42.9 1.2 0.7 4.9 1.6 8.1 1.8 4.9 0.5 5.8 0.9 5.8 2.6 0 1.8 -0.5 1.9 -6.7 1.2 -12.9 -1.3 -11.7 0 -33.8 -37 -16.3 -27.3 -18.5 -31.6 -18.5 -37.4 0 -3.8 -0.2 -4.2 -1.8 -3.5 -0.9 0.5 -17.3 1 -36.5 1.2 -34.2 0.3 -34.7 0.3 -34.7 -1.7 0 -2 0.7 -2 33.9 -2.3 l34 -0.3 3.1 -3 c1.7 -1.6 4.8 -5.9 6.9 -9.5 2.1 -3.6 7.5 -12.6 12.1 -20 13.7 -22.2 20.1 -33.7 20.7 -37.3 0.3 -2.3 -0.1 -4.9 -1.5 -7.8 -2.9 -6.7 -34.1 -60.1 -36.5 -62.8 -4.5 -4.9 -6.4 -5.1 -40.7 -5.1 -31.3 0 -32 0 -32 -2 0 -2 0.7 -2 32.8 -2 24.7 0.1 33.6 0.4 36.5 1.4 l3.7 1.4 0 -3.6 c0 -2.5 1.5 -5.9 5.4 -12.1 8.1 -13.1 12.5 -20.9 13.2 -23.6 0.6 -2.6 4.4 -3.6 4.4 -1.2 0 0.6 -3 6.4 -6.7 12.7 -11.9 20.5 -12.5 21.9 -12.1 27.5 0.4 4.4 2.2 8.1 13.2 26.5 25.5 42.9 25.4 42.8 34.4 44.5 1.8 0.4 3.2 1.3 3.2 2.1 0 1.2 4.9 1.4 31.5 1.4 26.9 0 31.5 -0.2 31.5 -1.5 0 -0.8 1.4 -1.7 3.8 -2.1 8.3 -1.5 7.9 -1.1 26.6 -31.9 5.3 -8.8 10.1 -16.7 10.6 -17.5 10.4 -16.9 11.8 -20.4 10.2 -25.7 -0.6 -2.2 -5.2 -11 -10.2 -19.7 -4.9 -8.6 -9 -16.1 -9 -16.7 0 -2.3 2.7 -0.6 3.8 2.5 1.3 3.5 12.3 22.3 17.3 29.3 3.7 5.2 3.7 8.8 0 13.9 -1.5 2.1 -7.1 11.3 -12.4 20.4 -5.2 9.1 -13.1 22.7 -17.6 30.3 -4.5 7.5 -8.1 14.3 -8.1 15 0 0.7 -1.7 1.9 -3.7 2.7 l-3.8 1.3 3.3 0.9 c1.7 0.5 3.2 1.4 3.2 2.1 0 0.7 1.7 4.2 3.8 7.8 2.1 3.5 9.7 16.3 16.7 28.4 7.1 12.1 14.6 24.6 16.7 27.7 2.4 3.5 3.8 6.9 3.8 8.8 0 2.8 0.2 3 2 2 3.3 -1.7 85.4 -1.4 88.8 0.4 4.1 2.1 5.3 3.7 17.8 25.1 20.4 34.7 24.5 42.7 25.1 49 0.4 4.1 0.2 6 -0.9 7.3 -2.8 3.3 -37.2 61.9 -38.3 65.1 -1.6 5 -3.7 5.3 -47.2 5.5 -24.8 0 -41.4 -0.3 -43.1 -0.9z m80.9 -3.6 c5.3 -1.6 7.1 -3.9 19.9 -24.9 26.2 -42.9 24.5 -39.8 24.5 -46 0 -5.1 -0.6 -6.6 -7.6 -18.5 -4.1 -7.1 -11.1 -19.1 -15.4 -26.5 -12.6 -21.7 -14.8 -25.2 -17.8 -27.4 -2.7 -2 -4.2 -2.1 -38 -2.4 -19.4 -0.2 -37.7 0 -40.7 0.3 -6.1 0.8 -9.7 3.7 -14.2 11.7 -1.4 2.4 -6.1 10.6 -10.5 18.3 -4.4 7.7 -8.9 15.6 -10 17.5 -1.1 1.9 -4.3 7.5 -7.2 12.5 -6 10.5 -6.7 14.5 -3.4 21 2.4 4.7 34.1 57.7 36.1 60.3 3.6 4.7 7.1 5.1 45.1 5.2 23.8 0 36.6 -0.4 39.2 -1.1z m-212.3 -224.9 c1.2 -0.1 1 -0.5 -0.8 -1.5 -3.4 -1.9 -4 -1.9 -4 0.6 0 1.5 0.4 1.9 1.6 1.5 0.9 -0.3 2.3 -0.6 3.2 -0.6z"/>
    <path d="M134 268 c0 -1.9 0.7 -2 25 -2 24.3 0 25 0.1 25 2 0 1.9 -0.7 2 -25 2 -24.3 0 -25 -0.1 -25 -2z"/>
  </g>
  <g fill="#63735a">
    <path d="M95.1 391.3 c-2.2 -5 -18.4 -32.7 -20.3 -34.9 -2.4 -2.7 -2.3 -3.4 0.6 -3.4 1.9 0 3.8 2.4 11 14.3 4.7 7.9 8.6 15.1 8.6 16 0 1 0.4 1.7 1 1.7 1.1 0 4 5.3 4 7.5 0 2.6 -3.6 1.7 -4.9 -1.2z"/>
    <path d="M249.2 345 c0.3 -2.8 1.2 -2.9 9.3 -1.1 7.1 1.5 66.5 0.8 72.4 -0.9 6.2 -1.8 10.4 -6.5 19.5 -22 4.4 -7.4 8.6 -14.2 9.4 -15 0.7 -0.8 -1.9 4.1 -5.9 11 -8.7 15 -11.2 19.5 -14.3 25.2 l-2.3 4.3 -31.4 -0.3 c-17.3 -0.1 -37.2 0.1 -44.2 0.5 l-12.8 0.8 0.3 -2.5z"/>
    <path d="M229.2 319.8 c-1.6 -2.9 -5.3 -9.3 -8.2 -14.3 -2.9 -4.9 -7.1 -12.1 -9.2 -16 -2.1 -3.8 -4.5 -7.7 -5.3 -8.6 -0.8 -0.8 -1.5 -2.5 -1.5 -3.7 0 -3.6 3.4 -2.7 5.3 1.4 1 2 7.4 13 14.2 24.5 6.9 11.5 12.5 21.2 12.5 21.4 0 0.3 -1.1 0.5 -2.4 0.5 -1.9 0 -3.1 -1.2 -5.4 -5.2z"/>
    <path d="M376.4 277.7 c0.3 -1 0.6 -3.4 0.6 -5.3 0 -3.2 0.2 -3.4 3.5 -3.4 3.6 0 4.6 1.3 2 2.7 -0.8 0.5 -2.7 2.4 -4.1 4.3 -1.5 1.9 -2.4 2.7 -2 1.7z"/>
    <path d="M96.5 241.7 c-1.9 -3.5 -3.5 -7 -3.5 -7.7 0 -0.7 -0.7 -1.8 -1.4 -2.4 -2 -1.5 -17.6 -28.3 -17.6 -30.1 0 -0.8 0.9 -1.5 2 -1.5 1.1 0 2 0.5 2 1 0 0.6 6.1 11.2 13.5 23.6 7.4 12.4 13.5 22.7 13.5 22.9 0 0.3 -1.1 0.5 -2.5 0.5 -1.9 0 -3.1 -1.2 -6 -6.3z"/>
    <path d="M361.7 239.8 c-2.5 -4 -7.5 -12.7 -11.2 -19.3 -3.8 -6.6 -8.1 -13.9 -9.7 -16.2 l-2.9 -4.3 2.9 0 c1.9 0 3.2 0.6 3.7 1.8 0.6 1.7 10.1 17.9 19.7 33.7 2.6 4.3 4.8 8.7 4.8 9.7 0 3.8 -3 1.5 -7.3 -5.4z"/>
    <path d="M252 194 c0 -1.3 4.8 -1.5 38.6 -1.2 28.3 0.2 39 0 40 -0.9 1.1 -0.9 1.4 -0.7 1.4 1.2 l0 2.4 -40 0 c-34.9 0 -40 -0.2 -40 -1.5z"/>
    <path d="M243 189.9 c0 -2.1 -6.3 -14.5 -10.3 -20.2 -1 -1.6 -1.7 -3 -1.4 -3.3 0.2 -0.3 2.9 3.7 5.8 8.7 3 5.1 6.6 10.5 8.2 12.2 3.4 3.6 3.4 4.7 0.2 4.7 -1.9 0 -2.5 -0.5 -2.5 -2.1z"/>
    <path d="M225.5 157 c-0.9 -1.6 -1.3 -3 -1.1 -3 0.3 0 1.2 1.4 2.1 3 0.9 1.7 1.3 3 1.1 3 -0.3 0 -1.2 -1.3 -2.1 -3z"/>
    <path d="M204.3 123.1 c-4 -3.3 -4.3 -6.1 -0.8 -6.1 1.7 0 2.3 0.4 1.9 1.4 -0.3 0.8 0.2 2.8 1.1 4.5 1.9 3.7 1.8 3.7 -2.2 0.2z"/>
    <path d="M202 112.8 c0 -0.7 1.3 -2.6 2.9 -4.3 1.6 -1.6 7.5 -10.6 13.2 -20 5.6 -9.3 10.6 -17.4 11.2 -18 1.3 -1.4 -0.9 2.8 -5.4 10.2 -9.1 14.9 -17.9 30.5 -17.9 31.8 0 0.8 -0.9 1.5 -2 1.5 -1.1 0 -2 -0.5 -2 -1.2z"/>
    <path d="M242.5 47.1 c3 -6 0.7 -13.4 -9.5 -30.3 -1.2 -2.1 -1.9 -3.8 -1.6 -3.8 0.3 0 3 4.3 6.2 9.5 3.1 5.2 6.6 10.6 7.9 11.9 3.7 4 4 6.3 1.1 9.4 -1.4 1.5 -3.3 3.6 -4.1 4.7 -1.4 1.7 -1.4 1.5 0 -1.4z"/>
    <path d="M31.8 42.3 c-27.3 -0.3 -31.8 -0.5 -31.8 -1.8 0 -1.3 4.3 -1.5 31.9 -1.5 18.9 0 33 -0.4 34.6 -1 2.5 -0.9 2.6 -0.8 2.3 1.7 -0.2 2.2 -0.8 2.8 -2.8 2.8 -1.4 0.1 -16.8 -0.1 -34.2 -0.2z"/>
    <path d="M70 37.1 c0 -0.6 0.5 -1.1 1 -1.1 1.8 0 19.4 -28.6 20.6 -33.6 0.3 -1.3 1.3 -2.4 2.1 -2.4 1.9 0 0.9 3 -3.2 9.5 -7 11 -11.8 19.6 -13 23.7 -1.1 3.8 -1.6 4.3 -4.4 4.6 -1.7 0.2 -3.1 -0.1 -3.1 -0.7z"/>
    <path d="M226.4 5.5 c-1.4 -2.5 -2.4 -4.9 -2 -5.2 0.7 -0.8 0.6 -0.9 3.4 5 2.8 6 2.1 6.1 -1.4 0.2z"/>
  </g>
  <g fill="#7d6547">
    <path d="M97.7 396.2 c-0.9 -2.1 -5.6 -10.6 -10.3 -18.8 -11 -19.1 -11.9 -20.8 -10.3 -19.9 0.8 0.6 1 0.4 0.5 -0.4 -0.5 -0.7 -1.1 -1 -1.4 -0.7 -1.3 1.3 -3.2 -1.9 -3.8 -6.4 l-0.6 -4.7 -3.7 0.8 c-2 0.5 -18.1 0.9 -35.8 0.9 -31.2 0 -32.3 -0.1 -32.3 -1.9 0 -1.9 1.3 -1.9 32.3 -2.3 27 -0.3 32.8 -0.6 35.8 -2 4 -1.7 5.8 -4.6 31.2 -46.7 10.1 -16.9 12.1 -21.3 11.2 -25.8 -0.6 -3.2 -6.8 -14.6 -26.7 -48.8 -3.9 -6.6 -8.2 -13.7 -9.6 -15.8 -4.8 -7.2 -4.8 -7.2 -41.4 -7.5 -31.6 -0.3 -32.8 -0.4 -32.8 -2.3 0 -1.8 1.1 -1.9 32.8 -1.9 19.2 0 34.2 0.4 36.4 1 4.3 1.2 9.2 6.5 8.5 9.2 -0.3 1 -0.1 1.6 0.3 1.3 0.9 -0.6 6.7 9.3 6.2 10.7 -0.3 1 2.6 6.8 3.4 6.8 0.2 0 -0.2 -1.3 -1.1 -3 -2.2 -4.2 -1.1 -3.8 1.4 0.6 2.4 4 2.6 4.8 0.9 3.8 -0.7 -0.4 -0.8 -0.3 -0.4 0.5 0.4 0.6 1.1 0.9 1.6 0.6 1.2 -0.8 3.3 3.3 2.4 4.7 -0.4 0.7 -0.3 0.8 0.4 0.4 1.4 -0.8 4.6 5 3.6 6.6 -0.4 0.6 -0.3 0.8 0.3 0.5 1.3 -0.8 16.8 24.5 18.2 29.8 l1 4 42 -0.3 c48.8 -0.3 47.4 -0.5 51.7 8 1.4 2.9 5.5 10.1 9 15.9 6.6 11 7.3 12.5 5.2 11.3 -0.8 -0.4 -1 -0.3 -0.5 0.2 0.5 0.5 1.3 0.9 1.7 0.9 0.5 0 4.6 6.1 9.1 13.5 4.5 7.4 9 14.9 10 16.6 1 1.7 2.5 5.1 3.2 7.5 1.4 4.5 1.4 4.5 -2 8.4 l-3.3 3.8 0.6 -4.5 c0.9 -6.2 -1.3 -10.8 -21.6 -45.3 -2.9 -4.9 -7 -12.1 -9.1 -15.8 -5.8 -10.4 -9.5 -14.5 -14 -15.7 -2.5 -0.7 -17.1 -1 -40.8 -0.8 -35.7 0.3 -37.1 0.4 -39.8 2.4 -3.1 2.3 -6.3 7.2 -20.1 31.4 -20.9 36.5 -19.7 34 -19.7 40.1 0 5.2 0.5 6.4 10.2 22.5 5.5 9.3 11.8 19.9 13.8 23.7 l3.7 6.7 -2.9 0 c-2.4 0 -3.2 -0.7 -4.6 -3.8z m-15.2 -31.1 c-1.3 -2.7 -3 -5.3 -3.7 -5.7 -0.8 -0.5 -0.7 0.1 0.3 1.6 0.9 1.4 2.4 4 3.3 5.8 0.9 1.7 1.9 3.2 2.1 3.2 0.3 0 -0.6 -2.2 -2 -4.9z m135 -72 c-0.8 -1.7 -1.9 -3.3 -2.5 -3.6 -0.5 -0.3 -0.1 1 1.1 2.9 2.5 4.3 3.6 4.8 1.4 0.7z m-5.5 -9.2 c-1.2 -2.3 -2.4 -3.9 -2.6 -3.6 -0.5 0.5 3.5 7.7 4.2 7.7 0.3 0 -0.5 -1.8 -1.6 -4.1z m-112 -43.3 c-3 -4.9 -3.6 -4.6 -0.8 0.3 1.2 2.2 2.4 3.8 2.6 3.6 0.3 -0.2 -0.6 -2 -1.8 -3.9z m-18.1 -30.3 c-3.1 -5.2 -4.5 -6.6 -2.4 -2.3 1.9 3.7 3.5 6 4.2 6 0.3 0 -0.5 -1.7 -1.8 -3.7z"/>
    <path d="M215.7 396.9 c1.8 -3 6 -7.4 5.2 -5.4 -0.2 0.6 -1.1 2.7 -1.9 4.8 -0.9 2.4 -2 3.7 -3.3 3.7 -1.8 0 -1.8 -0.1 0 -3.1z"/>
    <path d="M379.1 267.5 c-4.6 -4.1 -14.7 -21.8 -13.5 -23.6 0.4 -0.7 0.3 -0.9 -0.4 -0.5 -0.5 0.3 -2 -0.9 -3.1 -2.8 -2.4 -3.7 -2.7 -5.1 -0.9 -4 0.7 0.4 0.8 0.3 0.4 -0.5 -0.4 -0.6 -1.1 -0.9 -1.6 -0.6 -0.5 0.3 -1.6 -0.8 -2.5 -2.4 -1.8 -3.6 -1.9 -4.5 -0.3 -3.5 0.7 0.4 0.8 0.3 0.4 -0.5 -0.4 -0.6 -1.1 -0.9 -1.6 -0.6 -0.5 0.3 -2.8 -3 -5.1 -7.2 -2.3 -4.3 -6.2 -10.8 -8.5 -14.5 -4.8 -7.4 -7.3 -16.7 -4.9 -18 1.8 -1 7.2 -8.7 12.2 -17.3 2.3 -3.8 4.9 -7.9 5.8 -9 1.9 -2.4 -2.9 6.8 -7.3 14.1 -6.5 10.4 -7.7 17.6 -4.1 24.7 3.7 7.1 30.4 51.7 34.8 57.9 3.2 4.6 7.5 6.8 13.4 6.8 9.8 0 10.4 2.5 0.8 3.4 -3.8 0.3 -7.6 0.9 -8.4 1.2 -0.9 0.3 -3.2 -0.9 -5.6 -3.1z m-26.2 -46.5 c-1.2 -2.2 -2.5 -3.8 -2.7 -3.5 -0.5 0.4 3.7 7.5 4.4 7.5 0.3 0 -0.5 -1.8 -1.7 -4z m-7.3 -12.8 c-1.4 -2.2 -3 -4.3 -3.5 -4.6 -0.5 -0.4 0.5 1.6 2.2 4.3 1.8 2.7 3.3 4.8 3.5 4.6 0.2 -0.2 -0.8 -2.1 -2.2 -4.3z"/>
    <path d="M378.8 119.9 l1.7 -5.1 5 0.6 c2.7 0.3 7.1 0.6 9.8 0.6 3.3 0 4.7 0.4 4.7 1.4 0 0.9 -2.1 1.5 -7.2 2 -4.9 0.5 -8.7 1.5 -11.5 3.2 l-4.1 2.4 1.6 -5.1z"/>
  </g>
  <g fill="#567744">
    <path d="M97.7 396.2 c-3.3 -7.6 -21.7 -38.6 -24.7 -41.8 -1.7 -1.8 -4.8 -3.8 -6.8 -4.4 -2.2 -0.6 -16.6 -1 -34.9 -1 -30.9 0 -31.3 0 -31.3 -2 0 -2.1 0.3 -2.1 34.8 -1.8 30.5 0.3 35.1 0.5 37.8 2 1.8 1 3.4 2.8 3.8 4.1 0.3 1.3 4.3 8.6 8.9 16.3 18.8 31.5 19.3 32.4 15.9 32.4 -1.1 0 -2.4 -1.4 -3.5 -3.8z m-15.2 -31.1 c-1.3 -2.7 -3 -5.3 -3.7 -5.7 -0.8 -0.5 -0.7 0.1 0.3 1.6 0.9 1.4 2.4 4 3.3 5.8 0.9 1.7 1.9 3.2 2.1 3.2 0.3 0 -0.6 -2.2 -2 -4.9z"/>
    <path d="M246.7 345.1 c-1.6 -1 -5.2 -6 -8.1 -11.2 -11 -19.7 -25.8 -44.9 -31 -53 -2.1 -3.4 -3.6 -6.9 -3.6 -8.8 l0 -3.1 -4.7 0.8 c-2.7 0.4 -21.7 0.7 -42.3 0.7 -44.3 0 -42.7 0.3 -48.2 -9.6 -5.7 -10.3 -7.4 -13.3 -20.6 -35.9 -6.9 -11.8 -13.4 -22.6 -14.4 -23.9 -1 -1.3 -1.8 -3.8 -1.8 -5.6 0 -3.3 0 -3.3 -3.7 -2.4 -2.1 0.5 -18.3 0.9 -36 0.9 -31.6 0 -32.3 0 -32.3 -2 0 -2 0.7 -2 31.3 -2 18 0 32.7 -0.4 34.9 -1 4.7 -1.3 8.6 -6 17.3 -20.4 3.9 -6.4 9 -14.7 11.4 -18.4 2.4 -3.7 6.9 -11 10 -16.2 5.3 -9.1 5.6 -9.8 5.6 -16.5 0 -6.8 -0.2 -7.3 -6.8 -19 -3.8 -6.6 -8.9 -15.6 -11.4 -20 -10.6 -18.8 -15.7 -27.2 -18.2 -29.8 -5.6 -6.1 -5.6 -6.2 -41.6 -6.7 l-33 -0.6 31.6 -0.2 c25.1 -0.2 31.9 -0.5 33.4 -1.6 1.4 -1 2.6 -1.1 4.3 -0.5 3.2 1.2 3.2 1.2 3.2 -1.6 0 -1.5 0.6 -2.5 1.4 -2.5 0.8 0 2.2 -1 3.1 -2.2 1.6 -2.3 1.6 -2.3 0.8 0.7 -1.7 6.2 -0.8 12.9 2.4 18.6 3.5 6.3 24.3 40.7 29.8 49.4 4.6 7.2 5.2 7.8 9.2 9.9 2.8 1.4 8 1.6 40.7 1.6 37.6 0 40.5 -0.2 44.6 -3.6 1.3 -1.1 1.5 -0.8 1.7 1.8 0.2 2 -0.4 3.6 -1.5 4.4 -1 0.8 -1.2 1.3 -0.5 1.4 0.7 0 1.1 1.2 1 2.9 l-0.2 2.9 -3 -1.7 c-2.6 -1.4 -7.8 -1.6 -38.5 -1.9 -19.5 -0.2 -37.4 0 -39.7 0.3 -7.5 1.1 -10.8 5 -23.7 28.1 -3.7 6.5 -7.1 12.6 -7.6 13.4 -0.5 0.8 -4.2 7.3 -8.2 14.4 -6.5 11.7 -7.2 13.4 -7 18 0.2 7.7 0.6 10.5 1.4 10 0.9 -0.6 6.4 9.7 6 11.4 -0.2 0.8 0.1 1.1 0.6 0.8 0.6 -0.3 1.9 1 3.1 3 2.4 4 2.6 4.8 0.9 3.8 -0.7 -0.4 -0.8 -0.3 -0.4 0.5 0.4 0.6 1.1 0.9 1.6 0.6 1.2 -0.8 3.3 3.3 2.4 4.7 -0.4 0.7 -0.3 0.8 0.4 0.4 1.4 -0.8 4.6 5 3.6 6.6 -0.4 0.6 -0.3 0.8 0.3 0.5 0.6 -0.4 3.4 3.3 6.3 8.1 9.8 16.1 12 18.9 15.8 20.8 3.4 1.7 6.7 1.9 40.7 1.9 34.9 0 37.2 -0.1 41 -2 3.5 -1.8 5.6 -4.6 16.6 -22.5 7 -11.3 14.7 -23.6 17.2 -27.5 6.5 -9.9 8.7 -15.2 8.7 -21.1 0 -4 0.3 -5.1 1.6 -5.1 0.9 0 2 1 2.6 2.2 0.7 1.6 1.6 2 4.1 1.7 2.4 -0.2 3.5 0.2 4.5 1.7 1.1 1.9 1 2.1 -0.8 2.1 -6 0 -10.5 4.7 -18.6 19.3 -3.1 5.6 -8.1 14.3 -11.1 19.3 -2.9 5.1 -5.3 9.5 -5.3 9.9 0 0.4 -0.8 1.9 -1.9 3.3 -1 1.5 -3.7 6.3 -6 10.7 -6.3 12.3 -6.1 13.7 6.5 34.6 6.5 10.9 7.3 12.6 5.2 11.3 -0.7 -0.4 -0.8 -0.3 -0.4 0.5 0.4 0.6 1.1 0.9 1.6 0.6 0.4 -0.3 3 3.2 5.6 7.7 7 12.3 15.1 24.5 17.4 26.5 1.1 1 4.4 2.6 7.3 3.6 2.8 0.9 4 1.6 2.5 1.4 -1.6 -0.2 -3.6 0.2 -4.5 0.9 -2.4 1.8 -3.3 1.7 -6.6 -0.5z m-29.2 -52 c-0.8 -1.7 -1.9 -3.3 -2.5 -3.6 -0.5 -0.3 -0.1 1 1.1 2.9 2.5 4.3 3.6 4.8 1.4 0.7z m-5.5 -9.2 c-1.2 -2.3 -2.4 -3.9 -2.6 -3.6 -0.5 0.5 3.5 7.7 4.2 7.7 0.3 0 -0.5 -1.8 -1.6 -4.1z m-112 -43.3 c-3 -4.9 -3.6 -4.6 -0.8 0.3 1.2 2.2 2.4 3.8 2.6 3.6 0.3 -0.2 -0.6 -2 -1.8 -3.9z m-18.1 -30.3 c-3.1 -5.2 -4.5 -6.6 -2.4 -2.3 1.9 3.7 3.5 6 4.2 6 0.3 0 -0.5 -1.7 -1.8 -3.7z"/>
    <path d="M330.5 345.2 l-3 -1.6 2.5 -0.6 c1.4 -0.4 3.9 -1.4 5.6 -2.3 l3.1 -1.6 -0.5 2.7 c-0.4 2.5 -2.8 5.4 -4.1 5.1 -0.3 -0.1 -1.9 -0.8 -3.6 -1.7z"/>
    <path d="M376.6 269.7 c-0.4 -2.3 -3.2 -8.8 -6.2 -14.4 -3 -5.7 -5.2 -10.8 -4.8 -11.5 0.4 -0.6 0.3 -0.8 -0.4 -0.4 -0.5 0.3 -2 -0.9 -3.1 -2.8 -2.4 -3.7 -2.7 -5.1 -0.9 -4 0.7 0.4 0.8 0.3 0.4 -0.5 -0.4 -0.6 -1.1 -0.9 -1.6 -0.6 -0.5 0.3 -1.6 -0.8 -2.5 -2.4 -1.8 -3.6 -1.9 -4.5 -0.3 -3.5 0.7 0.4 0.8 0.3 0.4 -0.5 -0.4 -0.6 -1.1 -0.9 -1.6 -0.6 -0.5 0.3 -2.8 -3 -5.1 -7.2 -10.3 -19 -15.8 -25.3 -21.8 -25.3 -2.3 0 -2.4 -0.1 -0.6 -2 1 -1.1 2.8 -2 3.9 -2 3.1 0 8.3 3.5 9.1 6.2 0.4 1.3 2.5 5.3 4.6 9 4.1 7 4.6 8.4 2.7 7.2 -0.7 -0.4 -0.8 -0.3 -0.4 0.5 0.4 0.6 1.1 0.9 1.5 0.6 0.5 -0.2 2.4 2.1 4.3 5.3 11.7 19.3 24.5 40.6 25.5 42.5 1.9 3.3 1.6 8 -0.6 9.4 -1.7 1.1 -1.9 0.8 -2.5 -3z m-23.7 -48.7 c-1.2 -2.2 -2.5 -3.8 -2.7 -3.5 -0.5 0.4 3.7 7.5 4.4 7.5 0.3 0 -0.5 -1.8 -1.7 -4z m-7.3 -12.8 c-1.4 -2.2 -3 -4.3 -3.5 -4.6 -0.5 -0.4 0.5 1.6 2.2 4.3 1.8 2.7 3.3 4.8 3.5 4.6 0.2 -0.2 -0.8 -2.1 -2.2 -4.3z"/>
    <path d="M243.6 39.7 c-0.9 -4.3 -0.8 -4.6 1.2 -4.2 0.9 0.2 2 0.4 2.5 0.4 0.4 0.1 0.7 1.6 0.7 3.5 0 2.8 -0.4 3.4 -1.9 3.3 -1.3 -0.1 -2.1 -1.1 -2.5 -3z"/>
  </g>
  <g fill="#695b3e">
    <path d="M98 394 c-1.2 -3.2 -2.5 -6 -2.9 -6.2 -0.5 -0.2 -2.1 -3 -3.7 -6.3 -6.8 -13.8 -12.1 -22.2 -17.3 -27.7 l-5.5 -5.8 -34.3 0 c-33.3 0 -34.3 -0.1 -34.3 -1.9 0 -1.9 1.1 -2 33.3 -2.3 30.2 -0.3 33.5 -0.5 36.7 -2.2 1.9 -1 4.3 -2.5 5.3 -3.4 2 -1.7 2.1 -1.1 0.7 4 -1.6 5.5 -0.1 9.6 8.1 23.3 7.8 13.2 16.9 28.7 18.8 32.3 1 1.9 0.9 2.2 -0.7 2.2 -1.5 0 -2.5 -1.5 -4.2 -6z"/>
    <path d="M244.1 345.8 c-1 -4.2 -2.5 -6.9 -18.3 -34.3 -19.3 -33.3 -21.3 -36.4 -25.4 -38.1 -4.9 -2 -77.1 -2 -82.9 0.1 -2.1 0.8 -4 1.3 -4.1 1.2 0 -0.1 -0.6 -2.4 -1.3 -5.2 -0.7 -2.7 -2.6 -7.5 -4.3 -10.5 -1.7 -3 -4 -7.1 -5.1 -9 -11.2 -20.1 -27.6 -47.2 -30.1 -49.8 -1.6 -1.8 -4.6 -3.7 -6.6 -4.2 -1.9 -0.6 -17.3 -1 -34.7 -1 -30.6 0 -31.3 0 -31.3 -2 0 -2 0.7 -2 34.9 -2 19.2 0 36.1 0.4 37.4 0.9 1.9 0.8 2.8 2.2 3.7 6.3 1.3 5.3 3.8 11.1 7 15.8 6.6 9.8 11.9 18.4 14.7 23.9 1.8 3.6 3.7 6.7 4.2 7 0.4 0.3 3.3 4.4 6.3 9.1 3 4.7 7 9.7 8.8 11.2 l3.3 2.8 42 -0.1 c34 -0.1 42.2 0.2 43.2 1.3 0.6 0.7 1.7 3.6 2.3 6.3 0.7 3.4 4.6 10.8 11.9 22.8 5.9 9.7 11.4 18.9 12.2 20.4 0.8 1.6 1.7 3 2.1 3.3 0.4 0.3 3 4.1 5.8 8.5 2.8 4.4 6.5 9.3 8.2 10.8 1.6 1.6 3 3.5 3 4.2 0 1.1 -4 4.5 -5.3 4.5 -0.3 0 -1 -1.9 -1.6 -4.2z"/>
    <path d="M379.1 270.7 c-0.6 -0.8 -1.8 -3.4 -2.6 -5.8 -0.9 -2.4 -2.3 -5.5 -3.2 -6.8 -0.9 -1.4 -3.7 -6.5 -6.3 -11.5 -2.6 -5 -7.8 -14.5 -11.6 -21.1 -3.8 -6.6 -7.8 -13.8 -8.9 -15.8 -3 -5.8 -12.8 -14.7 -16 -14.7 -2.3 0 -2.6 -0.2 -1.5 -1.5 1.1 -1.4 10.1 -5.9 10.5 -5.3 0 0.2 0.6 2.9 1.3 6.2 0.9 4.4 3.6 10 11.3 23 27.2 45.6 28.1 47.1 34.3 50.3 l3 1.5 -4 1.4 c-4.8 1.7 -4.9 1.7 -6.3 0.1z"/>
    <path d="M245.8 193.9 c-1.7 -1 -2.4 -4 -1.2 -5.1 0.9 -1 10.4 3.6 10.4 5 0 1.5 -6.7 1.6 -9.2 0.1z"/>
    <path d="M202.2 116.3 c0.2 -3.6 0.7 -4.9 2.1 -5.1 1.3 -0.3 1.7 0.3 1.7 2.8 0 3.5 -1.5 7 -3.1 7 -0.6 0 -0.9 -2 -0.7 -4.7z"/>
    <path d="M380.7 119.4 c-0.9 -1 -0.9 -5.4 0.1 -5.4 0.4 0.1 3.2 0.7 6.2 1.4 l5.5 1.3 -4.3 1.2 c-2.4 0.7 -4.9 1.4 -5.6 1.7 -0.6 0.2 -1.5 0.1 -1.9 -0.2z"/>
    <path d="M244.9 40.3 c-2 -5.3 1.2 -6.5 5.1 -1.7 1.2 1.4 1.2 1.8 -0.5 3 -2.7 2 -3.4 1.8 -4.6 -1.3z"/>
    <path d="M335.1 40.1 c-1 -0.6 -1 -1 -0.1 -1.6 1.3 -0.8 2.4 -0.1 1.9 1.4 -0.3 0.6 -1 0.7 -1.8 0.2z"/>
  </g>
  <g fill="#4b643a">
    <path d="M98 394 c-1.2 -3.2 -2.6 -6 -3.1 -6.2 -0.8 -0.3 -4.3 -7.8 -3.5 -7.8 0.4 0 7.4 11.7 10 16.8 1.4 2.6 1.4 3.2 0.2 3.2 -0.8 0 -2.3 -2.6 -3.6 -6z"/>
    <path d="M73.8 353.5 c-2 -1.8 -5.3 -3.8 -7.5 -4.4 -2.3 -0.7 -16 -1.1 -35 -1.1 -27.2 0 -31.3 -0.2 -31.3 -1.5 0 -1.3 4.7 -1.5 36 -1.5 l36 0 3 6 c1.7 3.3 2.9 6 2.8 6 -0.2 0 -1.9 -1.6 -4 -3.5z"/>
    <path d="M246.7 345.8 c-0.8 -1.3 -3.3 -5.7 -5.7 -9.8 -2.4 -4.1 -6.4 -10.9 -8.8 -15 -2.8 -4.7 -3.7 -6.8 -2.3 -5.6 1.1 1.1 2.1 2.4 2.1 3 0 0.7 0.9 2.3 1.9 3.6 1.1 1.4 4.4 6.1 7.3 10.5 3.8 5.7 6.4 8.5 9.4 10.1 l4.2 2.1 -2.8 1.7 c-3.6 2.1 -3.7 2 -5.3 -0.6z"/>
    <path d="M331.8 345.7 c-1.6 -1.2 -1.4 -1.5 1.8 -3 4.5 -2.2 4.6 -2.2 4.2 1.1 -0.3 3.1 -3.2 4 -6 1.9z"/>
    <path d="M205.1 275.6 c-2.9 -4.2 -3.3 -4.4 -8.8 -4.9 -3.2 -0.3 -22.4 -0.4 -42.7 -0.3 -42.4 0.3 -37.4 1.6 -44.9 -11.6 -2.5 -4.6 -5.8 -10.3 -7.3 -12.8 l-2.6 -4.5 2.6 3 c1.4 1.7 4.9 6.6 7.8 11 8.3 12.5 6 12 50.3 12 36.8 0 37 0 41.8 -2.3 2.6 -1.3 4.7 -2.8 4.7 -3.3 0 -0.5 0.5 -0.9 1 -0.9 0.7 0 0.9 2 0.4 5.8 -0.3 3.2 -0.1 7.4 0.4 9.5 0.6 2 0.9 3.7 0.7 3.7 -0.2 0 -1.8 -2 -3.4 -4.4z"/>
    <path d="M377.2 267.7 c-0.6 -2.7 -3.2 -8.5 -5.7 -12.8 -4.3 -7.5 -6.9 -12.9 -6.1 -12.9 0.2 0 2.3 3.3 4.7 7.3 2.3 3.9 6.2 10 8.6 13.4 4.9 7 5.3 8.9 2 9.5 -2 0.4 -2.4 -0.1 -3.5 -4.5z"/>
    <path d="M95.2 235.8 c-1.2 -1.6 -4.2 -7.5 -4.2 -8.4 0 -1.2 3.9 4.3 5 7 1 2.8 0.8 3.3 -0.8 1.4z"/>
    <path d="M74.4 200.4 c-1.6 -2.5 -3.9 -5 -5.2 -5.5 -1.3 -0.5 -17.4 -0.9 -35.8 -0.9 -28.4 0 -33.4 -0.2 -33.4 -1.4 0 -1.3 5.1 -1.5 33.3 -1.8 35.8 -0.3 35.2 -0.2 41.3 -6 l3.2 -3 -1.4 6.1 c-1.3 5.3 -1.3 6.9 0 11.6 0.8 3 1.3 5.5 1.2 5.5 -0.2 0 -1.6 -2.1 -3.2 -4.6z"/>
    <path d="M338.8 200.5 c-2.6 -2.5 -6.1 -4.8 -7.8 -5.1 -2.4 -0.5 -2.8 -0.9 -1.9 -2 1.2 -1.5 5.7 -1.8 7.6 -0.6 1 0.6 7.6 12.3 7 12.2 -0.1 0 -2.3 -2.1 -4.9 -4.5z"/>
    <path d="M244.5 194.5 c-0.8 -5.9 0 -7 3.2 -4.5 1.4 1.1 3.6 2 4.8 2 1.3 0 2.5 0.7 2.9 1.5 0.3 0.9 0 1.5 -1 1.5 -0.8 0 -3.2 0.9 -5.3 2 l-3.9 1.9 -0.7 -4.4z"/>
    <path d="M112.5 117.2 c-0.3 -2.6 -0.9 -5.8 -1.2 -7 l-0.6 -2.4 4.2 2.6 c6.7 4.3 12.7 4.8 48.6 4.4 31.2 -0.3 33.2 -0.4 37.2 -2.4 2.3 -1.2 4.5 -1.9 4.8 -1.6 0.6 0.6 -0.5 8.4 -1.4 9.4 -0.3 0.4 -2.4 0.1 -4.6 -0.7 -3.2 -1.1 -11.5 -1.4 -39.6 -1.5 -32.5 0 -36.1 0.2 -41.1 1.9 l-5.6 1.9 -0.7 -4.6z"/>
    <path d="M71.5 44.5 c-1.7 -0.8 -4.3 -1.9 -6 -2.5 l-2.9 -1.1 3 -1.9 c1.6 -1.1 4.6 -2.6 6.7 -3.5 l3.7 -1.5 -0.6 5.7 c-0.4 3.2 -0.7 5.9 -0.8 6 -0.1 0.1 -1.5 -0.5 -3.1 -1.2z"/>
    <path d="M245 40.4 c-0.6 -1.5 -0.8 -3.4 -0.5 -4.2 0.8 -2.1 3.5 0.4 3.5 3.4 0 3.4 -1.9 3.9 -3 0.8z"/>
  </g>
  <g fill="#565838">
    <path d="M99.5 395.7 c-1.2 -2.3 -3.8 -7.2 -5.9 -10.9 -2.1 -3.8 -3.6 -6.8 -3.3 -6.8 0.2 0 2.7 3.9 5.5 8.8 6.6 11.7 7.4 13.2 6.5 13.2 -0.4 0 -1.7 -1.9 -2.8 -4.3z"/>
    <path d="M75.1 353.8 c-3.9 -6.4 -3.3 -6.3 -40.9 -6.6 -20.7 -0.2 -34.2 -0.7 -34.2 -1.2 0 -0.6 13.9 -1 36 -1 l36 0 3 6 c3.3 6.5 3.4 7.9 0.1 2.8z"/>
    <path d="M246.7 345.8 c-1.3 -2.2 -22.5 -38.5 -23.4 -40 -0.2 -0.5 -0.2 -0.8 0 -0.8 0.2 0 4.9 7.5 10.3 16.6 9.6 16.1 14.3 22.5 17.4 23.7 1.3 0.5 1.3 0.7 0 1.6 -2.2 1.5 -2.8 1.4 -4.3 -1.1z"/>
    <path d="M333 346.2 c0 -1 4.1 -3.5 4.7 -2.8 1.1 1.1 -0.7 3.6 -2.7 3.6 -1.1 0 -2 -0.3 -2 -0.8z"/>
    <path d="M205.3 276 c-3.1 -4.7 -3.3 -4.8 -9 -5.3 -3.2 -0.3 -22.4 -0.4 -42.7 -0.3 -42.5 0.3 -37.1 1.8 -45.1 -12.2 -2.8 -4.8 -6.3 -10.8 -7.9 -13.4 -1.5 -2.7 -2.6 -4.8 -2.3 -4.8 0.2 0 3.3 4.8 6.8 10.6 8.3 13.9 10.5 16.3 15.4 17.4 4.8 1.1 78 0.7 81.2 -0.4 1.8 -0.6 2.4 -0.4 2.8 1 0.4 1.1 1.5 4.1 2.5 6.8 1.1 2.7 1.9 5.1 1.7 5.2 -0.1 0.1 -1.6 -1.9 -3.4 -4.6z"/>
    <path d="M379.1 268.3 c-1.2 -3.2 -11.4 -21.8 -19.1 -34.5 -1.2 -2.1 -2 -3.8 -1.7 -3.8 0.3 0 2.4 3.3 4.8 7.3 2.3 3.9 6.3 10.6 8.7 14.7 2.5 4.1 6 9.6 7.8 12.1 3.5 4.8 4.3 7.9 2.1 7.9 -0.7 0 -1.9 -1.7 -2.6 -3.7z"/>
    <path d="M95.2 235.8 c-4.5 -7.7 -7.2 -13.2 -5.5 -11 2.3 2.8 8.6 14.2 7.9 14.2 -0.2 0 -1.3 -1.5 -2.4 -3.2z"/>
    <path d="M355 225 c-1.1 -2.2 -1.8 -4 -1.5 -4 0.2 0 1.4 1.8 2.5 4 1.1 2.2 1.8 4 1.5 4 -0.2 0 -1.4 -1.8 -2.5 -4z"/>
    <path d="M74.4 200.4 c-1.6 -2.5 -3.9 -5 -5.2 -5.5 -1.3 -0.5 -17.4 -0.9 -35.8 -0.9 -21.6 0 -33.4 -0.4 -33.4 -1 0 -0.6 11.6 -1 32.8 -1 18 0 34.4 -0.3 36.5 -0.6 2.8 -0.5 3.7 -0.3 3.7 0.7 0 0.8 1.1 4 2.4 7.2 1.3 3.1 2.3 5.7 2.1 5.7 -0.1 0 -1.5 -2.1 -3.1 -4.6z"/>
    <path d="M340.5 201 c-2.5 -3.9 -6.9 -7 -10 -7 -0.9 0 -1.3 -0.4 -1 -1 0.7 -1.2 5.5 -1.3 7.2 -0.2 1.3 0.8 7.5 12.2 6.7 12.2 -0.2 0 -1.5 -1.8 -2.9 -4z"/>
    <path d="M246 191.4 c-1.4 -3.7 -1.3 -3.8 1.6 -1.5 1.5 1.2 3.7 2.1 5 2.1 1.3 0 2.4 0.5 2.4 1 0 0.6 -1.8 1 -4 1 -3.4 0 -4.2 -0.4 -5 -2.6z"/>
    <path d="M202.2 118.8 c-1.8 -1.8 -1.5 -3.2 1.4 -5.9 l2.7 -2.4 -0.6 2.5 c-0.4 1.4 -0.7 3.5 -0.7 4.8 0 2.4 -1 2.8 -2.8 1z"/>
    <path d="M246 40.6 c0 -1.3 -0.3 -3.3 -0.7 -4.3 -0.6 -1.6 -0.5 -1.6 1 -0.4 1.9 1.5 2.3 5.6 0.7 6.6 -0.6 0.3 -1 -0.5 -1 -1.9z"/>
    <path d="M66.5 40.1 c-1.8 -0.7 -1.5 -1.1 2.3 -3 2.4 -1.2 4.6 -2 4.8 -1.8 0.3 0.2 0 1.6 -0.5 3.1 -1.1 2.7 -2.9 3.1 -6.6 1.7z"/>
  </g>
</svg>